<?xml version="1.0" encoding="utf-8" standalone="no"?>
<!DOCTYPE svg PUBLIC "-//W3C//DTD SVG 1.1//EN"
  "http://www.w3.org/Graphics/SVG/1.1/DTD/svg11.dtd">
<svg xmlns:xlink="http://www.w3.org/1999/xlink" width="576pt" height="576pt" viewBox="0 0 576 576" xmlns="http://www.w3.org/2000/svg" version="1.1">
 <metadata>
  <rdf:RDF xmlns:dc="http://purl.org/dc/elements/1.1/" xmlns:cc="http://creativecommons.org/ns#" xmlns:rdf="http://www.w3.org/1999/02/22-rdf-syntax-ns#">
   <cc:Work>
    <dc:type rdf:resource="http://purl.org/dc/dcmitype/StillImage"/>
    <dc:date>2026-10-02T01:21:44.395166</dc:date>
    <dc:format>image/svg+xml</dc:format>
    <dc:creator>
     <cc:Agent>
      <dc:title>Matplotlib v3.10.1, https://matplotlib.org/</dc:title>
     </cc:Agent>
    </dc:creator>
   </cc:Work>
  </rdf:RDF>
 </metadata>
 <defs>
  <style type="text/css">*{stroke-linejoin: round; stroke-linecap: butt}</style>
 </defs>
 <g id="figure_1">
  <g id="patch_1">
   <path d="M 0 576 
L 576 576 
L 576 0 
L 0 0 
z
" style="fill: #ffffff"/>
  </g>
  <g id="axes_1">
   <g id="patch_2">
    <path d="M 65.792 201.264 
L 565.2 201.264 
L 565.2 49.536 
L 65.792 49.536 
z
" style="fill: #ffffff"/>
   </g>
   <g id="matplotlib.axis_1">
    <g id="xtick_1">
     <g id="line2d_1">
      <path d="M 88.492364 201.264 
L 88.492364 49.536 
" clip-path="url(#p0b6da57b30)" style="fill: none; stroke: #b0b0b0; stroke-opacity: 0.2; stroke-width: 0.8; stroke-linecap: square"/>
     </g>
     <g id="line2d_2">
      <defs>
       <path id="mcff6320cf2" d="M 0 0 
L 0 3.5 
" style="stroke: #000000; stroke-width: 0.8"/>
      </defs>
      <g>
       <use xlink:href="#mcff6320cf2" x="88.492364" y="201.264" style="stroke: #000000; stroke-width: 0.8"/>
      </g>
     </g>
    </g>
    <g id="xtick_2">
     <g id="line2d_3">
      <path d="M 164.160242 201.264 
L 164.160242 49.536 
" clip-path="url(#p0b6da57b30)" style="fill: none; stroke: #b0b0b0; stroke-opacity: 0.2; stroke-width: 0.8; stroke-linecap: square"/>
     </g>
     <g id="line2d_4">
      <g>
       <use xlink:href="#mcff6320cf2" x="164.160242" y="201.264" style="stroke: #000000; stroke-width: 0.8"/>
      </g>
     </g>
    </g>
    <g id="xtick_3">
     <g id="line2d_5">
      <path d="M 239.828121 201.264 
L 239.828121 49.536 
" clip-path="url(#p0b6da57b30)" style="fill: none; stroke: #b0b0b0; stroke-opacity: 0.2; stroke-width: 0.8; stroke-linecap: square"/>
     </g>
     <g id="line2d_6">
      <g>
       <use xlink:href="#mcff6320cf2" x="239.828121" y="201.264" style="stroke: #000000; stroke-width: 0.8"/>
      </g>
     </g>
    </g>
    <g id="xtick_4">
     <g id="line2d_7">
      <path d="M 315.496 201.264 
L 315.496 49.536 
" clip-path="url(#p0b6da57b30)" style="fill: none; stroke: #b0b0b0; stroke-opacity: 0.2; stroke-width: 0.8; stroke-linecap: square"/>
     </g>
     <g id="line2d_8">
      <g>
       <use xlink:href="#mcff6320cf2" x="315.496" y="201.264" style="stroke: #000000; stroke-width: 0.8"/>
      </g>
     </g>
    </g>
    <g id="xtick_5">
     <g id="line2d_9">
      <path d="M 391.163879 201.264 
L 391.163879 49.536 
" clip-path="url(#p0b6da57b30)" style="fill: none; stroke: #b0b0b0; stroke-opacity: 0.2; stroke-width: 0.8; stroke-linecap: square"/>
     </g>
     <g id="line2d_10">
      <g>
       <use xlink:href="#mcff6320cf2" x="391.163879" y="201.264" style="stroke: #000000; stroke-width: 0.8"/>
      </g>
     </g>
    </g>
    <g id="xtick_6">
     <g id="line2d_11">
      <path d="M 466.831758 201.264 
L 466.831758 49.536 
" clip-path="url(#p0b6da57b30)" style="fill: none; stroke: #b0b0b0; stroke-opacity: 0.2; stroke-width: 0.8; stroke-linecap: square"/>
     </g>
     <g id="line2d_12">
      <g>
       <use xlink:href="#mcff6320cf2" x="466.831758" y="201.264" style="stroke: #000000; stroke-width: 0.8"/>
      </g>
     </g>
    </g>
    <g id="xtick_7">
     <g id="line2d_13">
      <path d="M 542.499636 201.264 
L 542.499636 49.536 
" clip-path="url(#p0b6da57b30)" style="fill: none; stroke: #b0b0b0; stroke-opacity: 0.2; stroke-width: 0.8; stroke-linecap: square"/>
     </g>
     <g id="line2d_14">
      <g>
       <use xlink:href="#mcff6320cf2" x="542.499636" y="201.264" style="stroke: #000000; stroke-width: 0.8"/>
      </g>
     </g>
    </g>
   </g>
   <g id="matplotlib.axis_2">
    <g id="ytick_1">
     <g id="line2d_15">
      <path d="M 65.792 195.881614 
L 565.2 195.881614 
" clip-path="url(#p0b6da57b30)" style="fill: none; stroke: #b0b0b0; stroke-opacity: 0.2; stroke-width: 0.8; stroke-linecap: square"/>
     </g>
     <g id="line2d_16">
      <defs>
       <path id="mbadf26a379" d="M 0 0 
L -3.5 0 
" style="stroke: #000000; stroke-width: 0.8"/>
      </defs>
      <g>
       <use xlink:href="#mbadf26a379" x="65.792" y="195.881614" style="stroke: #000000; stroke-width: 0.8"/>
      </g>
     </g>
     <g id="text_1">
      <!-- −0.010 -->
      <g transform="translate(21.784188 199.680833) scale(0.1 -0.1)">
       <defs>
        <path id="DejaVuSans-2212" d="M 678 2272 
L 4684 2272 
L 4684 1741 
L 678 1741 
L 678 2272 
z
" transform="scale(0.015625)"/>
        <path id="DejaVuSans-30" d="M 2034 4250 
Q 1547 4250 1301 3770 
Q 1056 3291 1056 2328 
Q 1056 1369 1301 889 
Q 1547 409 2034 409 
Q 2525 409 2770 889 
Q 3016 1369 3016 2328 
Q 3016 3291 2770 3770 
Q 2525 4250 2034 4250 
z
M 2034 4750 
Q 2819 4750 3233 4129 
Q 3647 3509 3647 2328 
Q 3647 1150 3233 529 
Q 2819 -91 2034 -91 
Q 1250 -91 836 529 
Q 422 1150 422 2328 
Q 422 3509 836 4129 
Q 1250 4750 2034 4750 
z
" transform="scale(0.015625)"/>
        <path id="DejaVuSans-2e" d="M 684 794 
L 1344 794 
L 1344 0 
L 684 0 
L 684 794 
z
" transform="scale(0.015625)"/>
        <path id="DejaVuSans-31" d="M 794 531 
L 1825 531 
L 1825 4091 
L 703 3866 
L 703 4441 
L 1819 4666 
L 2450 4666 
L 2450 531 
L 3481 531 
L 3481 0 
L 794 0 
L 794 531 
z
" transform="scale(0.015625)"/>
       </defs>
       <use xlink:href="#DejaVuSans-2212"/>
       <use xlink:href="#DejaVuSans-30" transform="translate(83.789062 0)"/>
       <use xlink:href="#DejaVuSans-2e" transform="translate(147.412109 0)"/>
       <use xlink:href="#DejaVuSans-30" transform="translate(179.199219 0)"/>
       <use xlink:href="#DejaVuSans-31" transform="translate(242.822266 0)"/>
       <use xlink:href="#DejaVuSans-30" transform="translate(306.445312 0)"/>
      </g>
     </g>
    </g>
    <g id="ytick_2">
     <g id="line2d_17">
      <path d="M 65.792 172.612332 
L 565.2 172.612332 
" clip-path="url(#p0b6da57b30)" style="fill: none; stroke: #b0b0b0; stroke-opacity: 0.2; stroke-width: 0.8; stroke-linecap: square"/>
     </g>
     <g id="line2d_18">
      <g>
       <use xlink:href="#mbadf26a379" x="65.792" y="172.612332" style="stroke: #000000; stroke-width: 0.8"/>
      </g>
     </g>
     <g id="text_2">
      <!-- −0.005 -->
      <g transform="translate(21.784188 176.411551) scale(0.1 -0.1)">
       <defs>
        <path id="DejaVuSans-35" d="M 691 4666 
L 3169 4666 
L 3169 4134 
L 1269 4134 
L 1269 2991 
Q 1406 3038 1543 3061 
Q 1681 3084 1819 3084 
Q 2600 3084 3056 2656 
Q 3513 2228 3513 1497 
Q 3513 744 3044 326 
Q 2575 -91 1722 -91 
Q 1428 -91 1123 -41 
Q 819 9 494 109 
L 494 744 
Q 775 591 1075 516 
Q 1375 441 1709 441 
Q 2250 441 2565 725 
Q 2881 1009 2881 1497 
Q 2881 1984 2565 2268 
Q 2250 2553 1709 2553 
Q 1456 2553 1204 2497 
Q 953 2441 691 2322 
L 691 4666 
z
" transform="scale(0.015625)"/>
       </defs>
       <use xlink:href="#DejaVuSans-2212"/>
       <use xlink:href="#DejaVuSans-30" transform="translate(83.789062 0)"/>
       <use xlink:href="#DejaVuSans-2e" transform="translate(147.412109 0)"/>
       <use xlink:href="#DejaVuSans-30" transform="translate(179.199219 0)"/>
       <use xlink:href="#DejaVuSans-30" transform="translate(242.822266 0)"/>
       <use xlink:href="#DejaVuSans-35" transform="translate(306.445312 0)"/>
      </g>
     </g>
    </g>
    <g id="ytick_3">
     <g id="line2d_19">
      <path d="M 65.792 149.34305 
L 565.2 149.34305 
" clip-path="url(#p0b6da57b30)" style="fill: none; stroke: #b0b0b0; stroke-opacity: 0.2; stroke-width: 0.8; stroke-linecap: square"/>
     </g>
     <g id="line2d_20">
      <g>
       <use xlink:href="#mbadf26a379" x="65.792" y="149.34305" style="stroke: #000000; stroke-width: 0.8"/>
      </g>
     </g>
     <g id="text_3">
      <!-- 0.000 -->
      <g transform="translate(30.163875 153.142269) scale(0.1 -0.1)">
       <use xlink:href="#DejaVuSans-30"/>
       <use xlink:href="#DejaVuSans-2e" transform="translate(63.623047 0)"/>
       <use xlink:href="#DejaVuSans-30" transform="translate(95.410156 0)"/>
       <use xlink:href="#DejaVuSans-30" transform="translate(159.033203 0)"/>
       <use xlink:href="#DejaVuSans-30" transform="translate(222.65625 0)"/>
      </g>
     </g>
    </g>
    <g id="ytick_4">
     <g id="line2d_21">
      <path d="M 65.792 126.073768 
L 565.2 126.073768 
" clip-path="url(#p0b6da57b30)" style="fill: none; stroke: #b0b0b0; stroke-opacity: 0.2; stroke-width: 0.8; stroke-linecap: square"/>
     </g>
     <g id="line2d_22">
      <g>
       <use xlink:href="#mbadf26a379" x="65.792" y="126.073768" style="stroke: #000000; stroke-width: 0.8"/>
      </g>
     </g>
     <g id="text_4">
      <!-- 0.005 -->
      <g transform="translate(30.163875 129.872986) scale(0.1 -0.1)">
       <use xlink:href="#DejaVuSans-30"/>
       <use xlink:href="#DejaVuSans-2e" transform="translate(63.623047 0)"/>
       <use xlink:href="#DejaVuSans-30" transform="translate(95.410156 0)"/>
       <use xlink:href="#DejaVuSans-30" transform="translate(159.033203 0)"/>
       <use xlink:href="#DejaVuSans-35" transform="translate(222.65625 0)"/>
      </g>
     </g>
    </g>
    <g id="ytick_5">
     <g id="line2d_23">
      <path d="M 65.792 102.804485 
L 565.2 102.804485 
" clip-path="url(#p0b6da57b30)" style="fill: none; stroke: #b0b0b0; stroke-opacity: 0.2; stroke-width: 0.8; stroke-linecap: square"/>
     </g>
     <g id="line2d_24">
      <g>
       <use xlink:href="#mbadf26a379" x="65.792" y="102.804485" style="stroke: #000000; stroke-width: 0.8"/>
      </g>
     </g>
     <g id="text_5">
      <!-- 0.010 -->
      <g transform="translate(30.163875 106.603704) scale(0.1 -0.1)">
       <use xlink:href="#DejaVuSans-30"/>
       <use xlink:href="#DejaVuSans-2e" transform="translate(63.623047 0)"/>
       <use xlink:href="#DejaVuSans-30" transform="translate(95.410156 0)"/>
       <use xlink:href="#DejaVuSans-31" transform="translate(159.033203 0)"/>
       <use xlink:href="#DejaVuSans-30" transform="translate(222.65625 0)"/>
      </g>
     </g>
    </g>
    <g id="ytick_6">
     <g id="line2d_25">
      <path d="M 65.792 79.535203 
L 565.2 79.535203 
" clip-path="url(#p0b6da57b30)" style="fill: none; stroke: #b0b0b0; stroke-opacity: 0.2; stroke-width: 0.8; stroke-linecap: square"/>
     </g>
     <g id="line2d_26">
      <g>
       <use xlink:href="#mbadf26a379" x="65.792" y="79.535203" style="stroke: #000000; stroke-width: 0.8"/>
      </g>
     </g>
     <g id="text_6">
      <!-- 0.015 -->
      <g transform="translate(30.163875 83.334422) scale(0.1 -0.1)">
       <use xlink:href="#DejaVuSans-30"/>
       <use xlink:href="#DejaVuSans-2e" transform="translate(63.623047 0)"/>
       <use xlink:href="#DejaVuSans-30" transform="translate(95.410156 0)"/>
       <use xlink:href="#DejaVuSans-31" transform="translate(159.033203 0)"/>
       <use xlink:href="#DejaVuSans-35" transform="translate(222.65625 0)"/>
      </g>
     </g>
    </g>
    <g id="ytick_7">
     <g id="line2d_27">
      <path d="M 65.792 56.265921 
L 565.2 56.265921 
" clip-path="url(#p0b6da57b30)" style="fill: none; stroke: #b0b0b0; stroke-opacity: 0.2; stroke-width: 0.8; stroke-linecap: square"/>
     </g>
     <g id="line2d_28">
      <g>
       <use xlink:href="#mbadf26a379" x="65.792" y="56.265921" style="stroke: #000000; stroke-width: 0.8"/>
      </g>
     </g>
     <g id="text_7">
      <!-- 0.020 -->
      <g transform="translate(30.163875 60.06514) scale(0.1 -0.1)">
       <defs>
        <path id="DejaVuSans-32" d="M 1228 531 
L 3431 531 
L 3431 0 
L 469 0 
L 469 531 
Q 828 903 1448 1529 
Q 2069 2156 2228 2338 
Q 2531 2678 2651 2914 
Q 2772 3150 2772 3378 
Q 2772 3750 2511 3984 
Q 2250 4219 1831 4219 
Q 1534 4219 1204 4116 
Q 875 4013 500 3803 
L 500 4441 
Q 881 4594 1212 4672 
Q 1544 4750 1819 4750 
Q 2544 4750 2975 4387 
Q 3406 4025 3406 3419 
Q 3406 3131 3298 2873 
Q 3191 2616 2906 2266 
Q 2828 2175 2409 1742 
Q 1991 1309 1228 531 
z
" transform="scale(0.015625)"/>
       </defs>
       <use xlink:href="#DejaVuSans-30"/>
       <use xlink:href="#DejaVuSans-2e" transform="translate(63.623047 0)"/>
       <use xlink:href="#DejaVuSans-30" transform="translate(95.410156 0)"/>
       <use xlink:href="#DejaVuSans-32" transform="translate(159.033203 0)"/>
       <use xlink:href="#DejaVuSans-30" transform="translate(222.65625 0)"/>
      </g>
     </g>
    </g>
    <g id="text_8">
     <!-- $\rho$ -->
     <g transform="translate(15.684188 128.6) rotate(-90) scale(0.1 -0.1)">
      <defs>
       <path id="DejaVuSans-Oblique-3c1" d="M 1203 2875 
Q 1453 3194 1981 3475 
Q 2188 3584 2756 3584 
Q 3394 3584 3694 3078 
Q 3994 2572 3834 1747 
Q 3672 922 3175 415 
Q 2678 -91 2041 -91 
Q 1656 -91 1409 63 
Q 1163 213 1044 525 
L 681 -1331 
L 103 -1331 
L 697 1716 
Q 838 2438 1203 2875 
z
M 3238 1747 
Q 3359 2381 3169 2744 
Q 2978 3103 2522 3103 
Q 2066 3103 1734 2744 
Q 1403 2381 1281 1747 
Q 1156 1113 1347 750 
Q 1538 391 1994 391 
Q 2450 391 2781 750 
Q 3113 1113 3238 1747 
z
" transform="scale(0.015625)"/>
      </defs>
      <use xlink:href="#DejaVuSans-Oblique-3c1"/>
     </g>
    </g>
   </g>
   <g id="line2d_29">
    <path d="M 88.492364 149.34305 
L 244.443862 149.232678 
L 262.604153 148.944458 
L 270.322276 148.929691 
L 274.408342 149.135643 
L 277.586393 149.520082 
L 280.083433 150.036485 
L 282.353469 150.730953 
L 284.396502 151.58934 
L 286.212531 152.577165 
L 288.02856 153.811782 
L 289.844589 155.325789 
L 291.660618 157.147953 
L 293.476647 159.299912 
L 295.292676 161.792302 
L 297.335709 164.996621 
L 299.605745 169.008642 
L 302.556793 174.753399 
L 307.777876 185.056154 
L 309.593905 188.138153 
L 310.955927 190.092295 
L 312.317949 191.647383 
L 313.452967 192.579219 
L 314.360982 193.053754 
L 315.268996 193.264105 
L 316.177011 193.190706 
L 317.085025 192.816297 
L 317.99304 192.126306 
L 318.901055 191.109194 
L 319.809069 189.756755 
L 320.944087 187.587959 
L 322.079105 184.887521 
L 323.441127 180.95821 
L 324.803149 176.309609 
L 326.392175 170.047808 
L 328.208204 161.926614 
L 330.47824 150.643292 
L 333.883295 132.377684 
L 338.196364 109.380467 
L 340.693404 97.289686 
L 342.736436 88.479856 
L 344.552465 81.611571 
L 346.141491 76.398528 
L 347.730516 71.944065 
L 349.092538 68.722239 
L 350.45456 66.031191 
L 351.816582 63.842269 
L 353.178604 62.119051 
L 354.313622 61.008377 
L 355.44864 60.165038 
L 356.583658 59.561024 
L 357.94568 59.111808 
L 359.307702 58.916617 
L 360.896727 58.945882 
L 362.712756 59.230269 
L 365.209796 59.888338 
L 372.019905 61.844741 
L 374.516945 62.279071 
L 377.013985 62.482388 
L 379.511025 62.456049 
L 382.235069 62.195243 
L 385.41312 61.653605 
L 389.953193 60.621217 
L 398.352327 58.677394 
L 402.8924 57.887374 
L 407.205469 57.363233 
L 411.972545 57.012125 
L 417.87464 56.814105 
L 427.8628 56.74353 
L 450.790167 56.579537 
L 475.760567 56.454549 
L 542.499636 56.432727 
L 542.499636 56.432727 
" clip-path="url(#p0b6da57b30)" style="fill: none; stroke: #1f77b4; stroke-width: 1.5; stroke-linecap: square"/>
   </g>
   <g id="line2d_30">
    <path d="M 88.492364 149.34305 
L 243.989855 149.233937 
L 261.469135 148.955094 
L 269.868269 148.915192 
L 273.954335 149.105037 
L 277.132385 149.469896 
L 279.629425 149.965498 
L 281.899462 150.636464 
L 283.942495 151.469948 
L 285.758524 152.432963 
L 287.574553 153.640888 
L 289.390582 155.127371 
L 291.206611 156.922747 
L 293.02264 159.050831 
L 294.838669 161.525094 
L 296.881702 164.720284 
L 299.151738 168.743138 
L 301.875782 174.086718 
L 308.231884 186.829966 
L 310.047913 189.846074 
L 311.409935 191.709373 
L 312.544953 192.933013 
L 313.679971 193.806848 
L 314.587985 194.223895 
L 315.496 194.367273 
L 316.177011 194.28366 
L 316.858022 194.028191 
L 317.766036 193.409516 
L 318.674051 192.462048 
L 319.582065 191.176884 
L 320.49008 189.548691 
L 321.625098 187.029048 
L 322.760116 183.976766 
L 324.122138 179.632912 
L 325.711164 173.683667 
L 327.527193 165.849269 
L 329.570225 155.956257 
L 332.294269 141.564778 
L 338.877375 106.248653 
L 341.147411 95.459915 
L 343.190444 86.842206 
L 345.006473 80.173999 
L 346.595498 75.148749 
L 348.184524 70.886009 
L 349.546545 67.826475 
L 350.908567 65.291905 
L 352.270589 63.250546 
L 353.405607 61.898282 
L 354.540625 60.836216 
L 355.675644 60.037142 
L 356.810662 59.472731 
L 358.172684 59.064637 
L 359.534705 58.903517 
L 361.123731 58.963816 
L 362.93976 59.272856 
L 365.4368 59.948192 
L 371.792902 61.786269 
L 374.289942 62.241464 
L 376.786982 62.467123 
L 379.284022 62.461881 
L 382.008065 62.220538 
L 385.186116 61.695315 
L 389.499185 60.728982 
L 398.806335 58.586617 
L 403.119404 57.853623 
L 407.432473 57.341012 
L 412.199549 57.000099 
L 418.101644 56.809882 
L 428.543811 56.741864 
L 451.017171 56.577389 
L 475.760567 56.454549 
L 542.499636 56.432727 
L 542.499636 56.432727 
" clip-path="url(#p0b6da57b30)" style="fill: none; stroke-dasharray: 5.55,2.4; stroke-dashoffset: 0; stroke: #ff7f0e; stroke-width: 1.5"/>
   </g>
   <g id="line2d_31">
    <path d="M 315.496 201.264 
L 315.496 49.536 
" clip-path="url(#p0b6da57b30)" style="fill: none; stroke: #999999; stroke-width: 0.8; stroke-linecap: square"/>
   </g>
   <g id="patch_3">
    <path d="M 65.792 201.264 
L 65.792 49.536 
" style="fill: none; stroke: #000000; stroke-width: 0.8; stroke-linejoin: miter; stroke-linecap: square"/>
   </g>
   <g id="patch_4">
    <path d="M 565.2 201.264 
L 565.2 49.536 
" style="fill: none; stroke: #000000; stroke-width: 0.8; stroke-linejoin: miter; stroke-linecap: square"/>
   </g>
   <g id="patch_5">
    <path d="M 65.792 201.264 
L 565.2 201.264 
" style="fill: none; stroke: #000000; stroke-width: 0.8; stroke-linejoin: miter; stroke-linecap: square"/>
   </g>
   <g id="patch_6">
    <path d="M 65.792 49.536 
L 565.2 49.536 
" style="fill: none; stroke: #000000; stroke-width: 0.8; stroke-linejoin: miter; stroke-linecap: square"/>
   </g>
   <g id="legend_1">
    <g id="patch_7">
     <path d="M 71.392 79.421 
L 230.907 79.421 
Q 232.507 79.421 232.507 77.821 
L 232.507 55.136 
Q 232.507 53.536 230.907 53.536 
L 71.392 53.536 
Q 69.792 53.536 69.792 55.136 
L 69.792 77.821 
Q 69.792 79.421 71.392 79.421 
z
" style="fill: #ffffff; opacity: 0.8; stroke: #cccccc; stroke-linejoin: miter"/>
    </g>
    <g id="line2d_32">
     <path d="M 72.992 60.01475 
L 80.992 60.01475 
L 88.992 60.01475 
" style="fill: none; stroke: #1f77b4; stroke-width: 1.5; stroke-linecap: square"/>
    </g>
    <g id="text_9">
     <!-- matched PV, $\Lambda=16$ -->
     <g transform="translate(95.392 62.81475) scale(0.08 -0.08)">
      <defs>
       <path id="DejaVuSans-6d" d="M 3328 2828 
Q 3544 3216 3844 3400 
Q 4144 3584 4550 3584 
Q 5097 3584 5394 3201 
Q 5691 2819 5691 2113 
L 5691 0 
L 5113 0 
L 5113 2094 
Q 5113 2597 4934 2840 
Q 4756 3084 4391 3084 
Q 3944 3084 3684 2787 
Q 3425 2491 3425 1978 
L 3425 0 
L 2847 0 
L 2847 2094 
Q 2847 2600 2669 2842 
Q 2491 3084 2119 3084 
Q 1678 3084 1418 2786 
Q 1159 2488 1159 1978 
L 1159 0 
L 581 0 
L 581 3500 
L 1159 3500 
L 1159 2956 
Q 1356 3278 1631 3431 
Q 1906 3584 2284 3584 
Q 2666 3584 2933 3390 
Q 3200 3197 3328 2828 
z
" transform="scale(0.015625)"/>
       <path id="DejaVuSans-61" d="M 2194 1759 
Q 1497 1759 1228 1600 
Q 959 1441 959 1056 
Q 959 750 1161 570 
Q 1363 391 1709 391 
Q 2188 391 2477 730 
Q 2766 1069 2766 1631 
L 2766 1759 
L 2194 1759 
z
M 3341 1997 
L 3341 0 
L 2766 0 
L 2766 531 
Q 2569 213 2275 61 
Q 1981 -91 1556 -91 
Q 1019 -91 701 211 
Q 384 513 384 1019 
Q 384 1609 779 1909 
Q 1175 2209 1959 2209 
L 2766 2209 
L 2766 2266 
Q 2766 2663 2505 2880 
Q 2244 3097 1772 3097 
Q 1472 3097 1187 3025 
Q 903 2953 641 2809 
L 641 3341 
Q 956 3463 1253 3523 
Q 1550 3584 1831 3584 
Q 2591 3584 2966 3190 
Q 3341 2797 3341 1997 
z
" transform="scale(0.015625)"/>
       <path id="DejaVuSans-74" d="M 1172 4494 
L 1172 3500 
L 2356 3500 
L 2356 3053 
L 1172 3053 
L 1172 1153 
Q 1172 725 1289 603 
Q 1406 481 1766 481 
L 2356 481 
L 2356 0 
L 1766 0 
Q 1100 0 847 248 
Q 594 497 594 1153 
L 594 3053 
L 172 3053 
L 172 3500 
L 594 3500 
L 594 4494 
L 1172 4494 
z
" transform="scale(0.015625)"/>
       <path id="DejaVuSans-63" d="M 3122 3366 
L 3122 2828 
Q 2878 2963 2633 3030 
Q 2388 3097 2138 3097 
Q 1578 3097 1268 2742 
Q 959 2388 959 1747 
Q 959 1106 1268 751 
Q 1578 397 2138 397 
Q 2388 397 2633 464 
Q 2878 531 3122 666 
L 3122 134 
Q 2881 22 2623 -34 
Q 2366 -91 2075 -91 
Q 1284 -91 818 406 
Q 353 903 353 1747 
Q 353 2603 823 3093 
Q 1294 3584 2113 3584 
Q 2378 3584 2631 3529 
Q 2884 3475 3122 3366 
z
" transform="scale(0.015625)"/>
       <path id="DejaVuSans-68" d="M 3513 2113 
L 3513 0 
L 2938 0 
L 2938 2094 
Q 2938 2591 2744 2837 
Q 2550 3084 2163 3084 
Q 1697 3084 1428 2787 
Q 1159 2491 1159 1978 
L 1159 0 
L 581 0 
L 581 4863 
L 1159 4863 
L 1159 2956 
Q 1366 3272 1645 3428 
Q 1925 3584 2291 3584 
Q 2894 3584 3203 3211 
Q 3513 2838 3513 2113 
z
" transform="scale(0.015625)"/>
       <path id="DejaVuSans-65" d="M 3597 1894 
L 3597 1613 
L 953 1613 
Q 991 1019 1311 708 
Q 1631 397 2203 397 
Q 2534 397 2845 478 
Q 3156 559 3463 722 
L 3463 178 
Q 3153 47 2828 -22 
Q 2503 -91 2169 -91 
Q 1331 -91 842 396 
Q 353 884 353 1716 
Q 353 2575 817 3079 
Q 1281 3584 2069 3584 
Q 2775 3584 3186 3129 
Q 3597 2675 3597 1894 
z
M 3022 2063 
Q 3016 2534 2758 2815 
Q 2500 3097 2075 3097 
Q 1594 3097 1305 2825 
Q 1016 2553 972 2059 
L 3022 2063 
z
" transform="scale(0.015625)"/>
       <path id="DejaVuSans-64" d="M 2906 2969 
L 2906 4863 
L 3481 4863 
L 3481 0 
L 2906 0 
L 2906 525 
Q 2725 213 2448 61 
Q 2172 -91 1784 -91 
Q 1150 -91 751 415 
Q 353 922 353 1747 
Q 353 2572 751 3078 
Q 1150 3584 1784 3584 
Q 2172 3584 2448 3432 
Q 2725 3281 2906 2969 
z
M 947 1747 
Q 947 1113 1208 752 
Q 1469 391 1925 391 
Q 2381 391 2643 752 
Q 2906 1113 2906 1747 
Q 2906 2381 2643 2742 
Q 2381 3103 1925 3103 
Q 1469 3103 1208 2742 
Q 947 2381 947 1747 
z
" transform="scale(0.015625)"/>
       <path id="DejaVuSans-20" transform="scale(0.015625)"/>
       <path id="DejaVuSans-50" d="M 1259 4147 
L 1259 2394 
L 2053 2394 
Q 2494 2394 2734 2622 
Q 2975 2850 2975 3272 
Q 2975 3691 2734 3919 
Q 2494 4147 2053 4147 
L 1259 4147 
z
M 628 4666 
L 2053 4666 
Q 2838 4666 3239 4311 
Q 3641 3956 3641 3272 
Q 3641 2581 3239 2228 
Q 2838 1875 2053 1875 
L 1259 1875 
L 1259 0 
L 628 0 
L 628 4666 
z
" transform="scale(0.015625)"/>
       <path id="DejaVuSans-56" d="M 1831 0 
L 50 4666 
L 709 4666 
L 2188 738 
L 3669 4666 
L 4325 4666 
L 2547 0 
L 1831 0 
z
" transform="scale(0.015625)"/>
       <path id="DejaVuSans-2c" d="M 750 794 
L 1409 794 
L 1409 256 
L 897 -744 
L 494 -744 
L 750 256 
L 750 794 
z
" transform="scale(0.015625)"/>
       <path id="DejaVuSans-39b" d="M 716 0 
L 50 0 
L 1831 4666 
L 2547 4666 
L 4325 0 
L 3669 0 
L 2188 4044 
L 716 0 
z
" transform="scale(0.015625)"/>
       <path id="DejaVuSans-3d" d="M 678 2906 
L 4684 2906 
L 4684 2381 
L 678 2381 
L 678 2906 
z
M 678 1631 
L 4684 1631 
L 4684 1100 
L 678 1100 
L 678 1631 
z
" transform="scale(0.015625)"/>
       <path id="DejaVuSans-36" d="M 2113 2584 
Q 1688 2584 1439 2293 
Q 1191 2003 1191 1497 
Q 1191 994 1439 701 
Q 1688 409 2113 409 
Q 2538 409 2786 701 
Q 3034 994 3034 1497 
Q 3034 2003 2786 2293 
Q 2538 2584 2113 2584 
z
M 3366 4563 
L 3366 3988 
Q 3128 4100 2886 4159 
Q 2644 4219 2406 4219 
Q 1781 4219 1451 3797 
Q 1122 3375 1075 2522 
Q 1259 2794 1537 2939 
Q 1816 3084 2150 3084 
Q 2853 3084 3261 2657 
Q 3669 2231 3669 1497 
Q 3669 778 3244 343 
Q 2819 -91 2113 -91 
Q 1303 -91 875 529 
Q 447 1150 447 2328 
Q 447 3434 972 4092 
Q 1497 4750 2381 4750 
Q 2619 4750 2861 4703 
Q 3103 4656 3366 4563 
z
" transform="scale(0.015625)"/>
      </defs>
      <use xlink:href="#DejaVuSans-6d" transform="translate(0 0.015625)"/>
      <use xlink:href="#DejaVuSans-61" transform="translate(97.412109 0.015625)"/>
      <use xlink:href="#DejaVuSans-74" transform="translate(158.691406 0.015625)"/>
      <use xlink:href="#DejaVuSans-63" transform="translate(197.900391 0.015625)"/>
      <use xlink:href="#DejaVuSans-68" transform="translate(252.880859 0.015625)"/>
      <use xlink:href="#DejaVuSans-65" transform="translate(316.259766 0.015625)"/>
      <use xlink:href="#DejaVuSans-64" transform="translate(377.783203 0.015625)"/>
      <use xlink:href="#DejaVuSans-20" transform="translate(441.259766 0.015625)"/>
      <use xlink:href="#DejaVuSans-50" transform="translate(473.046875 0.015625)"/>
      <use xlink:href="#DejaVuSans-56" transform="translate(533.349609 0.015625)"/>
      <use xlink:href="#DejaVuSans-2c" transform="translate(601.757812 0.015625)"/>
      <use xlink:href="#DejaVuSans-20" transform="translate(633.544922 0.015625)"/>
      <use xlink:href="#DejaVuSans-39b" transform="translate(665.332031 0.015625)"/>
      <use xlink:href="#DejaVuSans-3d" transform="translate(753.222656 0.015625)"/>
      <use xlink:href="#DejaVuSans-31" transform="translate(856.494141 0.015625)"/>
      <use xlink:href="#DejaVuSans-36" transform="translate(920.117188 0.015625)"/>
     </g>
    </g>
    <g id="line2d_33">
     <path d="M 72.992 71.75725 
L 80.992 71.75725 
L 88.992 71.75725 
" style="fill: none; stroke-dasharray: 5.55,2.4; stroke-dashoffset: 0; stroke: #ff7f0e; stroke-width: 1.5"/>
    </g>
    <g id="text_10">
     <!-- direct physical-mode prescription -->
     <g transform="translate(95.392 74.55725) scale(0.08 -0.08)">
      <defs>
       <path id="DejaVuSans-69" d="M 603 3500 
L 1178 3500 
L 1178 0 
L 603 0 
L 603 3500 
z
M 603 4863 
L 1178 4863 
L 1178 4134 
L 603 4134 
L 603 4863 
z
" transform="scale(0.015625)"/>
       <path id="DejaVuSans-72" d="M 2631 2963 
Q 2534 3019 2420 3045 
Q 2306 3072 2169 3072 
Q 1681 3072 1420 2755 
Q 1159 2438 1159 1844 
L 1159 0 
L 581 0 
L 581 3500 
L 1159 3500 
L 1159 2956 
Q 1341 3275 1631 3429 
Q 1922 3584 2338 3584 
Q 2397 3584 2469 3576 
Q 2541 3569 2628 3553 
L 2631 2963 
z
" transform="scale(0.015625)"/>
       <path id="DejaVuSans-70" d="M 1159 525 
L 1159 -1331 
L 581 -1331 
L 581 3500 
L 1159 3500 
L 1159 2969 
Q 1341 3281 1617 3432 
Q 1894 3584 2278 3584 
Q 2916 3584 3314 3078 
Q 3713 2572 3713 1747 
Q 3713 922 3314 415 
Q 2916 -91 2278 -91 
Q 1894 -91 1617 61 
Q 1341 213 1159 525 
z
M 3116 1747 
Q 3116 2381 2855 2742 
Q 2594 3103 2138 3103 
Q 1681 3103 1420 2742 
Q 1159 2381 1159 1747 
Q 1159 1113 1420 752 
Q 1681 391 2138 391 
Q 2594 391 2855 752 
Q 3116 1113 3116 1747 
z
" transform="scale(0.015625)"/>
       <path id="DejaVuSans-79" d="M 2059 -325 
Q 1816 -950 1584 -1140 
Q 1353 -1331 966 -1331 
L 506 -1331 
L 506 -850 
L 844 -850 
Q 1081 -850 1212 -737 
Q 1344 -625 1503 -206 
L 1606 56 
L 191 3500 
L 800 3500 
L 1894 763 
L 2988 3500 
L 3597 3500 
L 2059 -325 
z
" transform="scale(0.015625)"/>
       <path id="DejaVuSans-73" d="M 2834 3397 
L 2834 2853 
Q 2591 2978 2328 3040 
Q 2066 3103 1784 3103 
Q 1356 3103 1142 2972 
Q 928 2841 928 2578 
Q 928 2378 1081 2264 
Q 1234 2150 1697 2047 
L 1894 2003 
Q 2506 1872 2764 1633 
Q 3022 1394 3022 966 
Q 3022 478 2636 193 
Q 2250 -91 1575 -91 
Q 1294 -91 989 -36 
Q 684 19 347 128 
L 347 722 
Q 666 556 975 473 
Q 1284 391 1588 391 
Q 1994 391 2212 530 
Q 2431 669 2431 922 
Q 2431 1156 2273 1281 
Q 2116 1406 1581 1522 
L 1381 1569 
Q 847 1681 609 1914 
Q 372 2147 372 2553 
Q 372 3047 722 3315 
Q 1072 3584 1716 3584 
Q 2034 3584 2315 3537 
Q 2597 3491 2834 3397 
z
" transform="scale(0.015625)"/>
       <path id="DejaVuSans-6c" d="M 603 4863 
L 1178 4863 
L 1178 0 
L 603 0 
L 603 4863 
z
" transform="scale(0.015625)"/>
       <path id="DejaVuSans-2d" d="M 313 2009 
L 1997 2009 
L 1997 1497 
L 313 1497 
L 313 2009 
z
" transform="scale(0.015625)"/>
       <path id="DejaVuSans-6f" d="M 1959 3097 
Q 1497 3097 1228 2736 
Q 959 2375 959 1747 
Q 959 1119 1226 758 
Q 1494 397 1959 397 
Q 2419 397 2687 759 
Q 2956 1122 2956 1747 
Q 2956 2369 2687 2733 
Q 2419 3097 1959 3097 
z
M 1959 3584 
Q 2709 3584 3137 3096 
Q 3566 2609 3566 1747 
Q 3566 888 3137 398 
Q 2709 -91 1959 -91 
Q 1206 -91 779 398 
Q 353 888 353 1747 
Q 353 2609 779 3096 
Q 1206 3584 1959 3584 
z
" transform="scale(0.015625)"/>
       <path id="DejaVuSans-6e" d="M 3513 2113 
L 3513 0 
L 2938 0 
L 2938 2094 
Q 2938 2591 2744 2837 
Q 2550 3084 2163 3084 
Q 1697 3084 1428 2787 
Q 1159 2491 1159 1978 
L 1159 0 
L 581 0 
L 581 3500 
L 1159 3500 
L 1159 2956 
Q 1366 3272 1645 3428 
Q 1925 3584 2291 3584 
Q 2894 3584 3203 3211 
Q 3513 2838 3513 2113 
z
" transform="scale(0.015625)"/>
      </defs>
      <use xlink:href="#DejaVuSans-64"/>
      <use xlink:href="#DejaVuSans-69" transform="translate(63.476562 0)"/>
      <use xlink:href="#DejaVuSans-72" transform="translate(91.259766 0)"/>
      <use xlink:href="#DejaVuSans-65" transform="translate(130.123047 0)"/>
      <use xlink:href="#DejaVuSans-63" transform="translate(191.646484 0)"/>
      <use xlink:href="#DejaVuSans-74" transform="translate(246.626953 0)"/>
      <use xlink:href="#DejaVuSans-20" transform="translate(285.835938 0)"/>
      <use xlink:href="#DejaVuSans-70" transform="translate(317.623047 0)"/>
      <use xlink:href="#DejaVuSans-68" transform="translate(381.099609 0)"/>
      <use xlink:href="#DejaVuSans-79" transform="translate(444.478516 0)"/>
      <use xlink:href="#DejaVuSans-73" transform="translate(503.658203 0)"/>
      <use xlink:href="#DejaVuSans-69" transform="translate(555.757812 0)"/>
      <use xlink:href="#DejaVuSans-63" transform="translate(583.541016 0)"/>
      <use xlink:href="#DejaVuSans-61" transform="translate(638.521484 0)"/>
      <use xlink:href="#DejaVuSans-6c" transform="translate(699.800781 0)"/>
      <use xlink:href="#DejaVuSans-2d" transform="translate(727.583984 0)"/>
      <use xlink:href="#DejaVuSans-6d" transform="translate(763.667969 0)"/>
      <use xlink:href="#DejaVuSans-6f" transform="translate(861.080078 0)"/>
      <use xlink:href="#DejaVuSans-64" transform="translate(922.261719 0)"/>
      <use xlink:href="#DejaVuSans-65" transform="translate(985.738281 0)"/>
      <use xlink:href="#DejaVuSans-20" transform="translate(1047.261719 0)"/>
      <use xlink:href="#DejaVuSans-70" transform="translate(1079.048828 0)"/>
      <use xlink:href="#DejaVuSans-72" transform="translate(1142.525391 0)"/>
      <use xlink:href="#DejaVuSans-65" transform="translate(1181.388672 0)"/>
      <use xlink:href="#DejaVuSans-73" transform="translate(1242.912109 0)"/>
      <use xlink:href="#DejaVuSans-63" transform="translate(1295.011719 0)"/>
      <use xlink:href="#DejaVuSans-72" transform="translate(1349.992188 0)"/>
      <use xlink:href="#DejaVuSans-69" transform="translate(1391.105469 0)"/>
      <use xlink:href="#DejaVuSans-70" transform="translate(1418.888672 0)"/>
      <use xlink:href="#DejaVuSans-74" transform="translate(1482.365234 0)"/>
      <use xlink:href="#DejaVuSans-69" transform="translate(1521.574219 0)"/>
      <use xlink:href="#DejaVuSans-6f" transform="translate(1549.357422 0)"/>
      <use xlink:href="#DejaVuSans-6e" transform="translate(1610.539062 0)"/>
     </g>
    </g>
   </g>
  </g>
  <g id="axes_2">
   <g id="patch_8">
    <path d="M 65.792 367.292 
L 565.2 367.292 
L 565.2 215.564 
L 65.792 215.564 
z
" style="fill: #ffffff"/>
   </g>
   <g id="matplotlib.axis_3">
    <g id="xtick_8">
     <g id="line2d_34">
      <path d="M 88.492364 367.292 
L 88.492364 215.564 
" clip-path="url(#p862ea8c36f)" style="fill: none; stroke: #b0b0b0; stroke-opacity: 0.2; stroke-width: 0.8; stroke-linecap: square"/>
     </g>
     <g id="line2d_35">
      <g>
       <use xlink:href="#mcff6320cf2" x="88.492364" y="367.292" style="stroke: #000000; stroke-width: 0.8"/>
      </g>
     </g>
    </g>
    <g id="xtick_9">
     <g id="line2d_36">
      <path d="M 164.160242 367.292 
L 164.160242 215.564 
" clip-path="url(#p862ea8c36f)" style="fill: none; stroke: #b0b0b0; stroke-opacity: 0.2; stroke-width: 0.8; stroke-linecap: square"/>
     </g>
     <g id="line2d_37">
      <g>
       <use xlink:href="#mcff6320cf2" x="164.160242" y="367.292" style="stroke: #000000; stroke-width: 0.8"/>
      </g>
     </g>
    </g>
    <g id="xtick_10">
     <g id="line2d_38">
      <path d="M 239.828121 367.292 
L 239.828121 215.564 
" clip-path="url(#p862ea8c36f)" style="fill: none; stroke: #b0b0b0; stroke-opacity: 0.2; stroke-width: 0.8; stroke-linecap: square"/>
     </g>
     <g id="line2d_39">
      <g>
       <use xlink:href="#mcff6320cf2" x="239.828121" y="367.292" style="stroke: #000000; stroke-width: 0.8"/>
      </g>
     </g>
    </g>
    <g id="xtick_11">
     <g id="line2d_40">
      <path d="M 315.496 367.292 
L 315.496 215.564 
" clip-path="url(#p862ea8c36f)" style="fill: none; stroke: #b0b0b0; stroke-opacity: 0.2; stroke-width: 0.8; stroke-linecap: square"/>
     </g>
     <g id="line2d_41">
      <g>
       <use xlink:href="#mcff6320cf2" x="315.496" y="367.292" style="stroke: #000000; stroke-width: 0.8"/>
      </g>
     </g>
    </g>
    <g id="xtick_12">
     <g id="line2d_42">
      <path d="M 391.163879 367.292 
L 391.163879 215.564 
" clip-path="url(#p862ea8c36f)" style="fill: none; stroke: #b0b0b0; stroke-opacity: 0.2; stroke-width: 0.8; stroke-linecap: square"/>
     </g>
     <g id="line2d_43">
      <g>
       <use xlink:href="#mcff6320cf2" x="391.163879" y="367.292" style="stroke: #000000; stroke-width: 0.8"/>
      </g>
     </g>
    </g>
    <g id="xtick_13">
     <g id="line2d_44">
      <path d="M 466.831758 367.292 
L 466.831758 215.564 
" clip-path="url(#p862ea8c36f)" style="fill: none; stroke: #b0b0b0; stroke-opacity: 0.2; stroke-width: 0.8; stroke-linecap: square"/>
     </g>
     <g id="line2d_45">
      <g>
       <use xlink:href="#mcff6320cf2" x="466.831758" y="367.292" style="stroke: #000000; stroke-width: 0.8"/>
      </g>
     </g>
    </g>
    <g id="xtick_14">
     <g id="line2d_46">
      <path d="M 542.499636 367.292 
L 542.499636 215.564 
" clip-path="url(#p862ea8c36f)" style="fill: none; stroke: #b0b0b0; stroke-opacity: 0.2; stroke-width: 0.8; stroke-linecap: square"/>
     </g>
     <g id="line2d_47">
      <g>
       <use xlink:href="#mcff6320cf2" x="542.499636" y="367.292" style="stroke: #000000; stroke-width: 0.8"/>
      </g>
     </g>
    </g>
   </g>
   <g id="matplotlib.axis_4">
    <g id="ytick_8">
     <g id="line2d_48">
      <path d="M 65.792 361.584716 
L 565.2 361.584716 
" clip-path="url(#p862ea8c36f)" style="fill: none; stroke: #b0b0b0; stroke-opacity: 0.2; stroke-width: 0.8; stroke-linecap: square"/>
     </g>
     <g id="line2d_49">
      <g>
       <use xlink:href="#mbadf26a379" x="65.792" y="361.584716" style="stroke: #000000; stroke-width: 0.8"/>
      </g>
     </g>
     <g id="text_11">
      <!-- −0.02 -->
      <g transform="translate(28.146688 365.383935) scale(0.1 -0.1)">
       <use xlink:href="#DejaVuSans-2212"/>
       <use xlink:href="#DejaVuSans-30" transform="translate(83.789062 0)"/>
       <use xlink:href="#DejaVuSans-2e" transform="translate(147.412109 0)"/>
       <use xlink:href="#DejaVuSans-30" transform="translate(179.199219 0)"/>
       <use xlink:href="#DejaVuSans-32" transform="translate(242.822266 0)"/>
      </g>
     </g>
    </g>
    <g id="ytick_9">
     <g id="line2d_50">
      <path d="M 65.792 334.67295 
L 565.2 334.67295 
" clip-path="url(#p862ea8c36f)" style="fill: none; stroke: #b0b0b0; stroke-opacity: 0.2; stroke-width: 0.8; stroke-linecap: square"/>
     </g>
     <g id="line2d_51">
      <g>
       <use xlink:href="#mbadf26a379" x="65.792" y="334.67295" style="stroke: #000000; stroke-width: 0.8"/>
      </g>
     </g>
     <g id="text_12">
      <!-- −0.01 -->
      <g transform="translate(28.146688 338.472169) scale(0.1 -0.1)">
       <use xlink:href="#DejaVuSans-2212"/>
       <use xlink:href="#DejaVuSans-30" transform="translate(83.789062 0)"/>
       <use xlink:href="#DejaVuSans-2e" transform="translate(147.412109 0)"/>
       <use xlink:href="#DejaVuSans-30" transform="translate(179.199219 0)"/>
       <use xlink:href="#DejaVuSans-31" transform="translate(242.822266 0)"/>
      </g>
     </g>
    </g>
    <g id="ytick_10">
     <g id="line2d_52">
      <path d="M 65.792 307.761184 
L 565.2 307.761184 
" clip-path="url(#p862ea8c36f)" style="fill: none; stroke: #b0b0b0; stroke-opacity: 0.2; stroke-width: 0.8; stroke-linecap: square"/>
     </g>
     <g id="line2d_53">
      <g>
       <use xlink:href="#mbadf26a379" x="65.792" y="307.761184" style="stroke: #000000; stroke-width: 0.8"/>
      </g>
     </g>
     <g id="text_13">
      <!-- 0.00 -->
      <g transform="translate(36.526375 311.560403) scale(0.1 -0.1)">
       <use xlink:href="#DejaVuSans-30"/>
       <use xlink:href="#DejaVuSans-2e" transform="translate(63.623047 0)"/>
       <use xlink:href="#DejaVuSans-30" transform="translate(95.410156 0)"/>
       <use xlink:href="#DejaVuSans-30" transform="translate(159.033203 0)"/>
      </g>
     </g>
    </g>
    <g id="ytick_11">
     <g id="line2d_54">
      <path d="M 65.792 280.849418 
L 565.2 280.849418 
" clip-path="url(#p862ea8c36f)" style="fill: none; stroke: #b0b0b0; stroke-opacity: 0.2; stroke-width: 0.8; stroke-linecap: square"/>
     </g>
     <g id="line2d_55">
      <g>
       <use xlink:href="#mbadf26a379" x="65.792" y="280.849418" style="stroke: #000000; stroke-width: 0.8"/>
      </g>
     </g>
     <g id="text_14">
      <!-- 0.01 -->
      <g transform="translate(36.526375 284.648637) scale(0.1 -0.1)">
       <use xlink:href="#DejaVuSans-30"/>
       <use xlink:href="#DejaVuSans-2e" transform="translate(63.623047 0)"/>
       <use xlink:href="#DejaVuSans-30" transform="translate(95.410156 0)"/>
       <use xlink:href="#DejaVuSans-31" transform="translate(159.033203 0)"/>
      </g>
     </g>
    </g>
    <g id="ytick_12">
     <g id="line2d_56">
      <path d="M 65.792 253.937652 
L 565.2 253.937652 
" clip-path="url(#p862ea8c36f)" style="fill: none; stroke: #b0b0b0; stroke-opacity: 0.2; stroke-width: 0.8; stroke-linecap: square"/>
     </g>
     <g id="line2d_57">
      <g>
       <use xlink:href="#mbadf26a379" x="65.792" y="253.937652" style="stroke: #000000; stroke-width: 0.8"/>
      </g>
     </g>
     <g id="text_15">
      <!-- 0.02 -->
      <g transform="translate(36.526375 257.736871) scale(0.1 -0.1)">
       <use xlink:href="#DejaVuSans-30"/>
       <use xlink:href="#DejaVuSans-2e" transform="translate(63.623047 0)"/>
       <use xlink:href="#DejaVuSans-30" transform="translate(95.410156 0)"/>
       <use xlink:href="#DejaVuSans-32" transform="translate(159.033203 0)"/>
      </g>
     </g>
    </g>
    <g id="ytick_13">
     <g id="line2d_58">
      <path d="M 65.792 227.025886 
L 565.2 227.025886 
" clip-path="url(#p862ea8c36f)" style="fill: none; stroke: #b0b0b0; stroke-opacity: 0.2; stroke-width: 0.8; stroke-linecap: square"/>
     </g>
     <g id="line2d_59">
      <g>
       <use xlink:href="#mbadf26a379" x="65.792" y="227.025886" style="stroke: #000000; stroke-width: 0.8"/>
      </g>
     </g>
     <g id="text_16">
      <!-- 0.03 -->
      <g transform="translate(36.526375 230.825104) scale(0.1 -0.1)">
       <defs>
        <path id="DejaVuSans-33" d="M 2597 2516 
Q 3050 2419 3304 2112 
Q 3559 1806 3559 1356 
Q 3559 666 3084 287 
Q 2609 -91 1734 -91 
Q 1441 -91 1130 -33 
Q 819 25 488 141 
L 488 750 
Q 750 597 1062 519 
Q 1375 441 1716 441 
Q 2309 441 2620 675 
Q 2931 909 2931 1356 
Q 2931 1769 2642 2001 
Q 2353 2234 1838 2234 
L 1294 2234 
L 1294 2753 
L 1863 2753 
Q 2328 2753 2575 2939 
Q 2822 3125 2822 3475 
Q 2822 3834 2567 4026 
Q 2313 4219 1838 4219 
Q 1578 4219 1281 4162 
Q 984 4106 628 3988 
L 628 4550 
Q 988 4650 1302 4700 
Q 1616 4750 1894 4750 
Q 2613 4750 3031 4423 
Q 3450 4097 3450 3541 
Q 3450 3153 3228 2886 
Q 3006 2619 2597 2516 
z
" transform="scale(0.015625)"/>
       </defs>
       <use xlink:href="#DejaVuSans-30"/>
       <use xlink:href="#DejaVuSans-2e" transform="translate(63.623047 0)"/>
       <use xlink:href="#DejaVuSans-30" transform="translate(95.410156 0)"/>
       <use xlink:href="#DejaVuSans-33" transform="translate(159.033203 0)"/>
      </g>
     </g>
    </g>
    <g id="text_17">
     <!-- $p$ -->
     <g transform="translate(22.046688 294.628) rotate(-90) scale(0.1 -0.1)">
      <defs>
       <path id="DejaVuSans-Oblique-70" d="M 3175 2156 
Q 3175 2616 2975 2859 
Q 2775 3103 2400 3103 
Q 2144 3103 1911 2972 
Q 1678 2841 1497 2591 
Q 1319 2344 1212 1994 
Q 1106 1644 1106 1300 
Q 1106 863 1306 627 
Q 1506 391 1875 391 
Q 2147 391 2380 519 
Q 2613 647 2778 891 
Q 2956 1147 3065 1494 
Q 3175 1841 3175 2156 
z
M 1394 2969 
Q 1625 3272 1939 3428 
Q 2253 3584 2638 3584 
Q 3175 3584 3472 3232 
Q 3769 2881 3769 2247 
Q 3769 1728 3584 1258 
Q 3400 788 3053 416 
Q 2822 169 2531 39 
Q 2241 -91 1919 -91 
Q 1547 -91 1294 64 
Q 1041 219 916 525 
L 556 -1331 
L -19 -1331 
L 922 3500 
L 1497 3500 
L 1394 2969 
z
" transform="scale(0.015625)"/>
      </defs>
      <use xlink:href="#DejaVuSans-Oblique-70"/>
     </g>
    </g>
   </g>
   <g id="line2d_60">
    <path d="M 88.492364 307.76138 
L 214.479382 307.873325 
L 236.498735 307.850309 
L 244.216858 307.621706 
L 249.437942 307.258509 
L 253.524007 306.768036 
L 256.929062 306.153799 
L 259.880109 305.41639 
L 262.604153 304.519051 
L 265.101193 303.471664 
L 267.371229 302.297309 
L 269.641265 300.877592 
L 271.911302 299.179606 
L 273.954335 297.387858 
L 275.997367 295.326426 
L 278.267404 292.703463 
L 280.53744 289.725145 
L 283.03448 286.054767 
L 285.758524 281.642735 
L 289.844589 274.540695 
L 293.703651 267.978483 
L 295.746684 264.918973 
L 297.335709 262.898578 
L 298.697731 261.500194 
L 299.832749 260.619779 
L 300.967767 260.038794 
L 301.875782 259.814563 
L 302.783796 259.82395 
L 303.691811 260.084139 
L 304.599825 260.610933 
L 305.50784 261.418403 
L 306.415855 262.518545 
L 307.550873 264.319609 
L 308.685891 266.605257 
L 309.820909 269.38035 
L 311.182931 273.350761 
L 312.544953 277.996411 
L 314.133978 284.209925 
L 315.950007 292.225253 
L 318.220044 303.289591 
L 325.48416 339.670861 
L 327.073185 346.247646 
L 328.435207 351.073654 
L 329.570225 354.4196 
L 330.705244 357.077241 
L 331.613258 358.667598 
L 332.294269 359.530842 
L 332.97528 360.101601 
L 333.656291 360.372583 
L 334.337302 360.338167 
L 335.018313 359.994451 
L 335.699324 359.339289 
L 336.380335 358.372315 
L 337.288349 356.600694 
L 338.196364 354.285802 
L 339.331382 350.649942 
L 340.4664 346.226524 
L 341.828422 339.952762 
L 343.417447 331.446117 
L 345.233476 320.425936 
L 347.730516 303.686534 
L 354.313622 258.61281 
L 356.129651 247.96827 
L 357.718676 239.886387 
L 359.080698 234.045962 
L 360.215716 230.031819 
L 361.350735 226.849155 
L 362.258749 224.929008 
L 363.166764 223.581619 
L 363.847775 222.952874 
L 364.528785 222.653836 
L 365.209796 222.684897 
L 365.890807 223.044787 
L 366.571818 223.730584 
L 367.252829 224.737747 
L 368.160844 226.569707 
L 369.068858 228.943114 
L 370.203876 232.635124 
L 371.338895 237.080757 
L 372.700916 243.317815 
L 374.289942 251.673435 
L 376.332975 263.764548 
L 379.284022 282.870871 
L 384.051098 313.81273 
L 386.094131 325.642606 
L 387.91016 334.867795 
L 389.499185 341.720053 
L 390.861207 346.571144 
L 391.996225 349.839463 
L 393.131244 352.373364 
L 394.039258 353.85955 
L 394.947273 354.860181 
L 395.628284 355.291992 
L 396.309295 355.452408 
L 396.990305 355.344438 
L 397.671316 354.97239 
L 398.352327 354.341838 
L 399.260342 353.110894 
L 400.168356 351.451926 
L 401.303375 348.811363 
L 402.438393 345.589451 
L 403.800415 341.038689 
L 405.38944 334.929184 
L 407.432473 326.111315 
L 410.610524 311.2322 
L 414.242582 294.441118 
L 416.285615 285.95511 
L 418.101644 279.373095 
L 419.463665 275.164877 
L 420.825687 271.661636 
L 421.960705 269.321202 
L 423.095724 267.532153 
L 424.003738 266.508138 
L 424.911753 265.850368 
L 425.592764 265.597709 
L 426.273775 265.550201 
L 426.954785 265.705689 
L 427.635796 266.060992 
L 428.543811 266.838196 
L 429.451825 267.950545 
L 430.586844 269.788505 
L 431.721862 272.089788 
L 433.083884 275.40341 
L 434.672909 279.925311 
L 436.488938 285.778223 
L 439.212982 295.423555 
L 444.207062 313.26448 
L 446.250095 319.694943 
L 447.83912 324.060563 
L 449.201142 327.266327 
L 450.563164 329.916898 
L 451.698182 331.669512 
L 452.8332 332.987448 
L 453.741215 333.72067 
L 454.649229 334.165025 
L 455.557244 334.320241 
L 456.465258 334.188722 
L 457.373273 333.775498 
L 458.281287 333.088138 
L 459.189302 332.136653 
L 460.32432 330.594858 
L 461.459338 328.68859 
L 462.82136 325.967583 
L 464.410385 322.27967 
L 466.453418 316.907706 
L 469.404465 308.416561 
L 473.490531 296.684833 
L 475.533564 291.436332 
L 477.349593 287.378112 
L 478.938618 284.409199 
L 480.30064 282.355882 
L 481.435658 281.018629 
L 482.570676 280.036916 
L 483.478691 279.513816 
L 484.386705 279.226327 
L 485.29472 279.174386 
L 486.202735 279.355746 
L 487.110749 279.766014 
L 488.018764 280.398723 
L 489.153782 281.489352 
L 490.2888 282.893545 
L 491.650822 284.957157 
L 493.239847 287.822458 
L 495.055876 291.58811 
L 497.552916 297.350818 
L 503.909018 312.341845 
L 505.952051 316.436293 
L 507.541076 319.157417 
L 508.903098 321.107707 
L 510.26512 322.667781 
L 511.400138 323.650368 
L 512.535156 324.332886 
L 513.443171 324.658645 
L 514.351185 324.787406 
L 515.2592 324.720005 
L 516.167215 324.459092 
L 517.302233 323.867724 
L 518.437251 322.993406 
L 519.572269 321.852459 
L 520.934291 320.159741 
L 522.523316 317.790947 
L 524.339345 314.656681 
L 526.836385 309.827225 
L 533.646495 296.290984 
L 535.689527 292.887358 
L 537.278553 290.643123 
L 538.640575 289.049384 
L 540.002596 287.791023 
L 541.137615 287.014359 
L 542.272633 286.49407 
L 542.499636 286.421247 
L 542.499636 286.421247 
" clip-path="url(#p862ea8c36f)" style="fill: none; stroke: #1f77b4; stroke-width: 1.5; stroke-linecap: square"/>
   </g>
   <g id="line2d_61">
    <path d="M 88.492364 307.761386 
L 213.798371 307.8738 
L 236.271731 307.853158 
L 243.762851 307.633053 
L 248.983935 307.275824 
L 253.07 306.792312 
L 256.475055 306.186059 
L 259.653105 305.39231 
L 262.377149 304.486151 
L 264.874189 303.429154 
L 267.144225 302.244809 
L 269.414262 300.814017 
L 271.684298 299.104081 
L 273.954335 297.084425 
L 276.224371 294.72965 
L 278.494407 292.023573 
L 280.764444 288.964248 
L 283.261484 285.213479 
L 286.212531 280.346592 
L 294.838669 265.745567 
L 296.654698 263.289619 
L 298.01672 261.774602 
L 299.151738 260.777508 
L 300.286756 260.061573 
L 301.194771 259.716104 
L 302.102785 259.592552 
L 303.0108 259.708388 
L 303.918815 260.079908 
L 304.826829 260.721896 
L 305.734844 261.647286 
L 306.642858 262.866826 
L 307.777876 264.817168 
L 308.912895 267.249531 
L 310.047913 270.165888 
L 311.409935 274.294499 
L 312.99896 279.939977 
L 314.814989 287.383605 
L 316.858022 296.803548 
L 319.809069 311.663289 
L 324.122138 333.429209 
L 326.165171 342.536833 
L 327.754196 348.619046 
L 329.116218 352.947259 
L 330.251236 355.833796 
L 331.159251 357.62599 
L 332.067265 358.928843 
L 332.748276 359.571095 
L 333.429287 359.917588 
L 334.110298 359.962247 
L 334.791309 359.700675 
L 335.47232 359.130202 
L 336.153331 358.249909 
L 337.061345 356.595968 
L 337.96936 354.399869 
L 339.104378 350.911869 
L 340.239396 346.632973 
L 341.601418 340.524311 
L 343.190444 332.193011 
L 345.006473 321.342336 
L 347.276509 306.329689 
L 354.767629 255.478571 
L 356.583658 245.217959 
L 358.172684 237.540628 
L 359.534705 232.089134 
L 360.669724 228.422904 
L 361.577738 226.098607 
L 362.485753 224.335829 
L 363.166764 223.390514 
L 363.847775 222.772445 
L 364.528785 222.483685 
L 365.209796 222.524626 
L 365.890807 222.893995 
L 366.571818 223.588875 
L 367.252829 224.604725 
L 368.160844 226.447667 
L 369.068858 228.831379 
L 370.203876 232.53535 
L 371.338895 236.991962 
L 372.700916 243.240961 
L 374.289942 251.608927 
L 376.332975 263.713623 
L 379.284022 282.835608 
L 384.051098 313.794904 
L 386.094131 325.62996 
L 387.91016 334.858855 
L 389.499185 341.713769 
L 390.861207 346.566763 
L 391.996225 349.836435 
L 393.131244 352.371504 
L 394.039258 353.858504 
L 394.947273 354.859852 
L 395.628284 355.292144 
L 396.309295 355.452993 
L 396.990305 355.345415 
L 397.671316 354.973719 
L 398.352327 354.343483 
L 399.260342 353.112908 
L 400.168356 351.454253 
L 401.303375 348.814015 
L 402.438393 345.59236 
L 403.800415 341.041832 
L 405.38944 334.93251 
L 407.432473 326.114766 
L 410.610524 311.235658 
L 414.242582 294.444407 
L 416.285615 285.958252 
L 418.101644 279.376091 
L 419.463665 275.167755 
L 420.825687 271.664392 
L 421.960705 269.323857 
L 423.095724 267.534705 
L 424.003738 266.510607 
L 424.911753 265.852756 
L 425.592764 265.600036 
L 426.273775 265.552468 
L 426.954785 265.707896 
L 427.635796 266.063141 
L 428.543811 266.840268 
L 429.451825 267.952541 
L 430.586844 269.790409 
L 431.721862 272.091601 
L 433.083884 275.40512 
L 434.672909 279.926905 
L 436.488938 285.779692 
L 439.212982 295.424852 
L 444.207062 313.265504 
L 446.250095 319.695871 
L 447.83912 324.061421 
L 449.201142 327.26713 
L 450.563164 329.917648 
L 451.698182 331.670222 
L 452.8332 332.988119 
L 453.741215 333.72131 
L 454.649229 334.165637 
L 455.557244 334.320826 
L 456.465258 334.189281 
L 457.373273 333.776031 
L 458.281287 333.088648 
L 459.189302 332.13714 
L 460.32432 330.595318 
L 461.459338 328.689024 
L 462.82136 325.967988 
L 464.410385 322.280043 
L 466.453418 316.908042 
L 469.404465 308.41685 
L 473.490531 296.685066 
L 475.533564 291.436542 
L 477.349593 287.378303 
L 478.938618 284.409375 
L 480.30064 282.356046 
L 481.435658 281.018783 
L 482.570676 280.037061 
L 483.478691 279.513954 
L 484.386705 279.226459 
L 485.29472 279.174513 
L 486.202735 279.355866 
L 487.110749 279.766128 
L 488.018764 280.398833 
L 489.153782 281.489455 
L 490.2888 282.893642 
L 491.650822 284.957248 
L 493.239847 287.822541 
L 495.055876 291.588185 
L 497.552916 297.350884 
L 503.909018 312.341893 
L 505.952051 316.436336 
L 507.541076 319.157456 
L 508.903098 321.107743 
L 510.26512 322.667815 
L 511.400138 323.6504 
L 512.535156 324.332916 
L 513.443171 324.658674 
L 514.351185 324.787433 
L 515.2592 324.720031 
L 516.167215 324.459117 
L 517.302233 323.867748 
L 518.437251 322.993428 
L 519.572269 321.85248 
L 520.934291 320.15976 
L 522.523316 317.790964 
L 524.339345 314.656697 
L 526.836385 309.827239 
L 533.646495 296.290994 
L 535.689527 292.887367 
L 537.278553 290.643131 
L 538.640575 289.049391 
L 540.002596 287.79103 
L 541.137615 287.014365 
L 542.272633 286.494077 
L 542.499636 286.421253 
L 542.499636 286.421253 
" clip-path="url(#p862ea8c36f)" style="fill: none; stroke-dasharray: 5.55,2.4; stroke-dashoffset: 0; stroke: #ff7f0e; stroke-width: 1.5"/>
   </g>
   <g id="line2d_62">
    <path d="M 315.496 367.292 
L 315.496 215.564 
" clip-path="url(#p862ea8c36f)" style="fill: none; stroke: #999999; stroke-width: 0.8; stroke-linecap: square"/>
   </g>
   <g id="patch_9">
    <path d="M 65.792 367.292 
L 65.792 215.564 
" style="fill: none; stroke: #000000; stroke-width: 0.8; stroke-linejoin: miter; stroke-linecap: square"/>
   </g>
   <g id="patch_10">
    <path d="M 565.2 367.292 
L 565.2 215.564 
" style="fill: none; stroke: #000000; stroke-width: 0.8; stroke-linejoin: miter; stroke-linecap: square"/>
   </g>
   <g id="patch_11">
    <path d="M 65.792 367.292 
L 565.2 367.292 
" style="fill: none; stroke: #000000; stroke-width: 0.8; stroke-linejoin: miter; stroke-linecap: square"/>
   </g>
   <g id="patch_12">
    <path d="M 65.792 215.564 
L 565.2 215.564 
" style="fill: none; stroke: #000000; stroke-width: 0.8; stroke-linejoin: miter; stroke-linecap: square"/>
   </g>
  </g>
  <g id="axes_3">
   <g id="patch_13">
    <path d="M 65.792 533.32 
L 565.2 533.32 
L 565.2 381.592 
L 65.792 381.592 
z
" style="fill: #ffffff"/>
   </g>
   <g id="matplotlib.axis_5">
    <g id="xtick_15">
     <g id="line2d_63">
      <path d="M 88.492364 533.32 
L 88.492364 381.592 
" clip-path="url(#p7559173e34)" style="fill: none; stroke: #b0b0b0; stroke-opacity: 0.2; stroke-width: 0.8; stroke-linecap: square"/>
     </g>
     <g id="line2d_64">
      <g>
       <use xlink:href="#mcff6320cf2" x="88.492364" y="533.32" style="stroke: #000000; stroke-width: 0.8"/>
      </g>
     </g>
     <g id="text_18">
      <!-- −6 -->
      <g transform="translate(81.12127 547.918438) scale(0.1 -0.1)">
       <use xlink:href="#DejaVuSans-2212"/>
       <use xlink:href="#DejaVuSans-36" transform="translate(83.789062 0)"/>
      </g>
     </g>
    </g>
    <g id="xtick_16">
     <g id="line2d_65">
      <path d="M 164.160242 533.32 
L 164.160242 381.592 
" clip-path="url(#p7559173e34)" style="fill: none; stroke: #b0b0b0; stroke-opacity: 0.2; stroke-width: 0.8; stroke-linecap: square"/>
     </g>
     <g id="line2d_66">
      <g>
       <use xlink:href="#mcff6320cf2" x="164.160242" y="533.32" style="stroke: #000000; stroke-width: 0.8"/>
      </g>
     </g>
     <g id="text_19">
      <!-- −4 -->
      <g transform="translate(156.789149 547.918438) scale(0.1 -0.1)">
       <defs>
        <path id="DejaVuSans-34" d="M 2419 4116 
L 825 1625 
L 2419 1625 
L 2419 4116 
z
M 2253 4666 
L 3047 4666 
L 3047 1625 
L 3713 1625 
L 3713 1100 
L 3047 1100 
L 3047 0 
L 2419 0 
L 2419 1100 
L 313 1100 
L 313 1709 
L 2253 4666 
z
" transform="scale(0.015625)"/>
       </defs>
       <use xlink:href="#DejaVuSans-2212"/>
       <use xlink:href="#DejaVuSans-34" transform="translate(83.789062 0)"/>
      </g>
     </g>
    </g>
    <g id="xtick_17">
     <g id="line2d_67">
      <path d="M 239.828121 533.32 
L 239.828121 381.592 
" clip-path="url(#p7559173e34)" style="fill: none; stroke: #b0b0b0; stroke-opacity: 0.2; stroke-width: 0.8; stroke-linecap: square"/>
     </g>
     <g id="line2d_68">
      <g>
       <use xlink:href="#mcff6320cf2" x="239.828121" y="533.32" style="stroke: #000000; stroke-width: 0.8"/>
      </g>
     </g>
     <g id="text_20">
      <!-- −2 -->
      <g transform="translate(232.457027 547.918438) scale(0.1 -0.1)">
       <use xlink:href="#DejaVuSans-2212"/>
       <use xlink:href="#DejaVuSans-32" transform="translate(83.789062 0)"/>
      </g>
     </g>
    </g>
    <g id="xtick_18">
     <g id="line2d_69">
      <path d="M 315.496 533.32 
L 315.496 381.592 
" clip-path="url(#p7559173e34)" style="fill: none; stroke: #b0b0b0; stroke-opacity: 0.2; stroke-width: 0.8; stroke-linecap: square"/>
     </g>
     <g id="line2d_70">
      <g>
       <use xlink:href="#mcff6320cf2" x="315.496" y="533.32" style="stroke: #000000; stroke-width: 0.8"/>
      </g>
     </g>
     <g id="text_21">
      <!-- 0 -->
      <g transform="translate(312.31475 547.918438) scale(0.1 -0.1)">
       <use xlink:href="#DejaVuSans-30"/>
      </g>
     </g>
    </g>
    <g id="xtick_19">
     <g id="line2d_71">
      <path d="M 391.163879 533.32 
L 391.163879 381.592 
" clip-path="url(#p7559173e34)" style="fill: none; stroke: #b0b0b0; stroke-opacity: 0.2; stroke-width: 0.8; stroke-linecap: square"/>
     </g>
     <g id="line2d_72">
      <g>
       <use xlink:href="#mcff6320cf2" x="391.163879" y="533.32" style="stroke: #000000; stroke-width: 0.8"/>
      </g>
     </g>
     <g id="text_22">
      <!-- 2 -->
      <g transform="translate(387.982629 547.918438) scale(0.1 -0.1)">
       <use xlink:href="#DejaVuSans-32"/>
      </g>
     </g>
    </g>
    <g id="xtick_20">
     <g id="line2d_73">
      <path d="M 466.831758 533.32 
L 466.831758 381.592 
" clip-path="url(#p7559173e34)" style="fill: none; stroke: #b0b0b0; stroke-opacity: 0.2; stroke-width: 0.8; stroke-linecap: square"/>
     </g>
     <g id="line2d_74">
      <g>
       <use xlink:href="#mcff6320cf2" x="466.831758" y="533.32" style="stroke: #000000; stroke-width: 0.8"/>
      </g>
     </g>
     <g id="text_23">
      <!-- 4 -->
      <g transform="translate(463.650508 547.918438) scale(0.1 -0.1)">
       <use xlink:href="#DejaVuSans-34"/>
      </g>
     </g>
    </g>
    <g id="xtick_21">
     <g id="line2d_75">
      <path d="M 542.499636 533.32 
L 542.499636 381.592 
" clip-path="url(#p7559173e34)" style="fill: none; stroke: #b0b0b0; stroke-opacity: 0.2; stroke-width: 0.8; stroke-linecap: square"/>
     </g>
     <g id="line2d_76">
      <g>
       <use xlink:href="#mcff6320cf2" x="542.499636" y="533.32" style="stroke: #000000; stroke-width: 0.8"/>
      </g>
     </g>
     <g id="text_24">
      <!-- 6 -->
      <g transform="translate(539.318386 547.918438) scale(0.1 -0.1)">
       <use xlink:href="#DejaVuSans-36"/>
      </g>
     </g>
    </g>
    <g id="text_25">
     <!-- $t/T$ -->
     <g transform="translate(308.796 561.596563) scale(0.1 -0.1)">
      <defs>
       <path id="DejaVuSans-Oblique-74" d="M 2706 3500 
L 2619 3053 
L 1472 3053 
L 1100 1153 
Q 1081 1047 1072 975 
Q 1063 903 1063 863 
Q 1063 663 1183 572 
Q 1303 481 1569 481 
L 2150 481 
L 2053 0 
L 1503 0 
Q 991 0 739 200 
Q 488 400 488 806 
Q 488 878 497 964 
Q 506 1050 525 1153 
L 897 3053 
L 409 3053 
L 500 3500 
L 978 3500 
L 1172 4494 
L 1747 4494 
L 1556 3500 
L 2706 3500 
z
" transform="scale(0.015625)"/>
       <path id="DejaVuSans-2f" d="M 1625 4666 
L 2156 4666 
L 531 -594 
L 0 -594 
L 1625 4666 
z
" transform="scale(0.015625)"/>
       <path id="DejaVuSans-Oblique-54" d="M 378 4666 
L 4325 4666 
L 4225 4134 
L 2559 4134 
L 1759 0 
L 1125 0 
L 1925 4134 
L 275 4134 
L 378 4666 
z
" transform="scale(0.015625)"/>
      </defs>
      <use xlink:href="#DejaVuSans-Oblique-74" transform="translate(0 0.09375)"/>
      <use xlink:href="#DejaVuSans-2f" transform="translate(39.208984 0.09375)"/>
      <use xlink:href="#DejaVuSans-Oblique-54" transform="translate(72.900391 0.09375)"/>
     </g>
    </g>
   </g>
   <g id="matplotlib.axis_6">
    <g id="ytick_14">
     <g id="line2d_77">
      <path d="M 65.792 514.289964 
L 565.2 514.289964 
" clip-path="url(#p7559173e34)" style="fill: none; stroke: #b0b0b0; stroke-opacity: 0.2; stroke-width: 0.8; stroke-linecap: square"/>
     </g>
     <g id="line2d_78">
      <g>
       <use xlink:href="#mbadf26a379" x="65.792" y="514.289964" style="stroke: #000000; stroke-width: 0.8"/>
      </g>
     </g>
     <g id="text_26">
      <!-- 0.000 -->
      <g transform="translate(30.163875 518.089183) scale(0.1 -0.1)">
       <use xlink:href="#DejaVuSans-30"/>
       <use xlink:href="#DejaVuSans-2e" transform="translate(63.623047 0)"/>
       <use xlink:href="#DejaVuSans-30" transform="translate(95.410156 0)"/>
       <use xlink:href="#DejaVuSans-30" transform="translate(159.033203 0)"/>
       <use xlink:href="#DejaVuSans-30" transform="translate(222.65625 0)"/>
      </g>
     </g>
    </g>
    <g id="ytick_15">
     <g id="line2d_79">
      <path d="M 65.792 476.692756 
L 565.2 476.692756 
" clip-path="url(#p7559173e34)" style="fill: none; stroke: #b0b0b0; stroke-opacity: 0.2; stroke-width: 0.8; stroke-linecap: square"/>
     </g>
     <g id="line2d_80">
      <g>
       <use xlink:href="#mbadf26a379" x="65.792" y="476.692756" style="stroke: #000000; stroke-width: 0.8"/>
      </g>
     </g>
     <g id="text_27">
      <!-- 0.005 -->
      <g transform="translate(30.163875 480.491975) scale(0.1 -0.1)">
       <use xlink:href="#DejaVuSans-30"/>
       <use xlink:href="#DejaVuSans-2e" transform="translate(63.623047 0)"/>
       <use xlink:href="#DejaVuSans-30" transform="translate(95.410156 0)"/>
       <use xlink:href="#DejaVuSans-30" transform="translate(159.033203 0)"/>
       <use xlink:href="#DejaVuSans-35" transform="translate(222.65625 0)"/>
      </g>
     </g>
    </g>
    <g id="ytick_16">
     <g id="line2d_81">
      <path d="M 65.792 439.095548 
L 565.2 439.095548 
" clip-path="url(#p7559173e34)" style="fill: none; stroke: #b0b0b0; stroke-opacity: 0.2; stroke-width: 0.8; stroke-linecap: square"/>
     </g>
     <g id="line2d_82">
      <g>
       <use xlink:href="#mbadf26a379" x="65.792" y="439.095548" style="stroke: #000000; stroke-width: 0.8"/>
      </g>
     </g>
     <g id="text_28">
      <!-- 0.010 -->
      <g transform="translate(30.163875 442.894767) scale(0.1 -0.1)">
       <use xlink:href="#DejaVuSans-30"/>
       <use xlink:href="#DejaVuSans-2e" transform="translate(63.623047 0)"/>
       <use xlink:href="#DejaVuSans-30" transform="translate(95.410156 0)"/>
       <use xlink:href="#DejaVuSans-31" transform="translate(159.033203 0)"/>
       <use xlink:href="#DejaVuSans-30" transform="translate(222.65625 0)"/>
      </g>
     </g>
    </g>
    <g id="ytick_17">
     <g id="line2d_83">
      <path d="M 65.792 401.49834 
L 565.2 401.49834 
" clip-path="url(#p7559173e34)" style="fill: none; stroke: #b0b0b0; stroke-opacity: 0.2; stroke-width: 0.8; stroke-linecap: square"/>
     </g>
     <g id="line2d_84">
      <g>
       <use xlink:href="#mbadf26a379" x="65.792" y="401.49834" style="stroke: #000000; stroke-width: 0.8"/>
      </g>
     </g>
     <g id="text_29">
      <!-- 0.015 -->
      <g transform="translate(30.163875 405.297559) scale(0.1 -0.1)">
       <use xlink:href="#DejaVuSans-30"/>
       <use xlink:href="#DejaVuSans-2e" transform="translate(63.623047 0)"/>
       <use xlink:href="#DejaVuSans-30" transform="translate(95.410156 0)"/>
       <use xlink:href="#DejaVuSans-31" transform="translate(159.033203 0)"/>
       <use xlink:href="#DejaVuSans-35" transform="translate(222.65625 0)"/>
      </g>
     </g>
    </g>
    <g id="text_30">
     <!-- $S=\langle\chi^2\rangle/2$ -->
     <g transform="translate(24.063875 480.906) rotate(-90) scale(0.1 -0.1)">
      <defs>
       <path id="DejaVuSans-Oblique-53" d="M 3859 4513 
L 3738 3897 
Q 3422 4066 3111 4152 
Q 2800 4238 2509 4238 
Q 1944 4238 1609 3991 
Q 1275 3744 1275 3334 
Q 1275 3109 1398 2989 
Q 1522 2869 2034 2731 
L 2413 2638 
Q 3053 2472 3303 2217 
Q 3553 1963 3553 1503 
Q 3553 797 2998 353 
Q 2444 -91 1538 -91 
Q 1166 -91 791 -17 
Q 416 56 38 206 
L 166 856 
Q 513 641 861 531 
Q 1209 422 1556 422 
Q 2147 422 2503 684 
Q 2859 947 2859 1369 
Q 2859 1650 2717 1795 
Q 2575 1941 2106 2059 
L 1728 2156 
Q 1081 2325 845 2545 
Q 609 2766 609 3163 
Q 609 3859 1145 4304 
Q 1681 4750 2541 4750 
Q 2875 4750 3203 4690 
Q 3531 4631 3859 4513 
z
" transform="scale(0.015625)"/>
       <path id="DejaVuSans-27e8" d="M 572 2006 
L 1453 4856 
L 1984 4856 
L 1103 2006 
L 1984 -844 
L 1453 -844 
L 572 2006 
z
" transform="scale(0.015625)"/>
       <path id="DejaVuSans-Oblique-3c7" d="M 1922 -781 
L 1691 416 
L 394 -1334 
L -284 -1334 
L 1553 1141 
L 1269 2613 
Q 1194 3006 713 3006 
L 559 3006 
L 653 3500 
L 872 3494 
Q 1675 3472 1775 2950 
L 2006 1753 
L 3303 3503 
L 3981 3503 
L 2144 1028 
L 2428 -444 
Q 2503 -838 2984 -838 
L 3138 -838 
L 3044 -1331 
L 2825 -1325 
Q 2022 -1303 1922 -781 
z
" transform="scale(0.015625)"/>
       <path id="DejaVuSans-27e9" d="M 1925 2006 
L 1044 -844 
L 513 -844 
L 1394 2006 
L 513 4856 
L 1044 4856 
L 1925 2006 
z
" transform="scale(0.015625)"/>
      </defs>
      <use xlink:href="#DejaVuSans-Oblique-53" transform="translate(0 0.765625)"/>
      <use xlink:href="#DejaVuSans-3d" transform="translate(82.958984 0.765625)"/>
      <use xlink:href="#DejaVuSans-27e8" transform="translate(186.230469 0.765625)"/>
      <use xlink:href="#DejaVuSans-Oblique-3c7" transform="translate(225.244141 0.765625)"/>
      <use xlink:href="#DejaVuSans-32" transform="translate(288.896536 39.046875) scale(0.7)"/>
      <use xlink:href="#DejaVuSans-27e9" transform="translate(336.167044 0.765625)"/>
      <use xlink:href="#DejaVuSans-2f" transform="translate(375.180716 0.765625)"/>
      <use xlink:href="#DejaVuSans-32" transform="translate(405.247122 0.765625)"/>
     </g>
    </g>
   </g>
   <g id="line2d_85">
    <path d="M 88.492364 514.290309 
L 198.589127 514.402533 
L 221.970502 514.647117 
L 241.265811 515.079241 
L 253.751011 515.289 
L 259.199098 515.171204 
L 263.285164 514.875621 
L 266.690218 514.409287 
L 269.641265 513.773478 
L 272.138305 513.012438 
L 274.408342 512.096905 
L 276.451375 511.052168 
L 278.494407 509.759848 
L 280.53744 508.179219 
L 282.353469 506.496884 
L 284.169498 504.520094 
L 285.985527 502.216126 
L 287.801556 499.552634 
L 289.617585 496.498874 
L 291.433615 493.027181 
L 293.476647 488.59378 
L 295.51968 483.580674 
L 297.562713 477.980563 
L 299.832749 471.084415 
L 302.329789 462.737906 
L 305.280836 452.013101 
L 309.593905 435.32978 
L 314.133978 417.975604 
L 316.631018 409.309023 
L 318.674051 403.048418 
L 320.263076 398.849209 
L 321.625098 395.799151 
L 322.98712 393.316542 
L 324.122138 391.718232 
L 325.030153 390.766388 
L 325.938167 390.117482 
L 326.846182 389.781135 
L 327.527193 389.738718 
L 328.208204 389.879039 
L 328.889215 390.20398 
L 329.797229 390.926417 
L 330.705244 391.980124 
L 331.613258 393.363885 
L 332.748276 395.552285 
L 333.883295 398.239307 
L 335.245316 402.097767 
L 336.607338 406.610677 
L 338.196364 412.636863 
L 340.012393 420.411232 
L 342.282429 431.216656 
L 345.233476 446.498797 
L 352.497593 484.719785 
L 354.767629 495.313758 
L 356.810662 503.796583 
L 358.626691 510.337949 
L 360.215716 515.203934 
L 361.577738 518.697035 
L 362.93976 521.542921 
L 364.074778 523.41293 
L 365.209796 524.826796 
L 366.117811 525.632714 
L 367.025825 526.154696 
L 367.93384 526.399505 
L 368.841855 526.375749 
L 369.749869 526.093788 
L 370.657884 525.565629 
L 371.565898 524.804814 
L 372.700916 523.549512 
L 374.062938 521.639401 
L 375.42496 519.345833 
L 377.240989 515.803103 
L 379.511025 510.822929 
L 387.229149 493.403152 
L 389.045178 490.029508 
L 390.634204 487.502447 
L 391.996225 485.695931 
L 393.358247 484.248761 
L 394.493265 483.330257 
L 395.628284 482.679573 
L 396.763302 482.298676 
L 397.89832 482.18569 
L 399.033338 482.335019 
L 400.168356 482.737512 
L 401.303375 483.380679 
L 402.665396 484.448034 
L 404.027418 485.807201 
L 405.616444 487.711886 
L 407.659476 490.562965 
L 410.38352 494.819092 
L 416.058611 503.798889 
L 418.101644 506.584939 
L 419.917673 508.696671 
L 421.506698 510.207282 
L 422.86872 511.22412 
L 424.230742 511.968308 
L 425.592764 512.4309 
L 426.727782 512.599022 
L 427.8628 512.570989 
L 428.997818 512.351116 
L 430.35984 511.844083 
L 431.721862 511.087909 
L 433.310887 509.919982 
L 435.126916 508.26 
L 437.169949 506.064966 
L 440.120996 502.509495 
L 445.34208 496.144701 
L 447.612116 493.75111 
L 449.428145 492.133596 
L 451.017171 490.981104 
L 452.606196 490.102453 
L 453.968218 489.581557 
L 455.33024 489.282168 
L 456.692262 489.206081 
L 458.054284 489.350389 
L 459.416305 489.707632 
L 461.005331 490.377619 
L 462.594356 491.295787 
L 464.410385 492.607786 
L 466.680422 494.55836 
L 469.858473 497.642925 
L 474.852553 502.511109 
L 477.122589 504.418547 
L 479.165622 505.844417 
L 480.981651 506.829614 
L 482.570676 507.44816 
L 484.159702 507.825502 
L 485.748727 507.955722 
L 487.337753 507.840058 
L 488.926778 507.486725 
L 490.515804 506.910538 
L 492.331833 506.006174 
L 494.374865 504.723222 
L 496.871905 502.869432 
L 501.411978 499.134197 
L 504.817033 496.467866 
L 507.087069 494.946755 
L 509.130102 493.835302 
L 510.946131 493.09186 
L 512.76216 492.602696 
L 514.351185 492.393719 
L 515.940211 492.391812 
L 517.529236 492.593343 
L 519.345265 493.060518 
L 521.161295 493.758534 
L 523.204327 494.781376 
L 525.701367 496.29642 
L 529.560429 498.955142 
L 534.100502 502.025564 
L 536.597542 503.447084 
L 538.640575 504.3804 
L 540.683607 505.063969 
L 542.499636 505.439907 
L 542.499636 505.439907 
" clip-path="url(#p7559173e34)" style="fill: none; stroke: #1f77b4; stroke-width: 1.5; stroke-linecap: square"/>
   </g>
   <g id="line2d_86">
    <path d="M 88.492364 514.29032 
L 198.13512 514.403356 
L 221.516495 514.650196 
L 240.5848 515.083413 
L 253.524007 515.312338 
L 258.972095 515.195928 
L 263.05816 514.899318 
L 266.463215 514.429896 
L 269.414262 513.789084 
L 271.911302 513.021617 
L 274.181338 512.098101 
L 276.224371 511.044132 
L 278.267404 509.740361 
L 280.310436 508.145796 
L 282.126465 506.448779 
L 283.942495 504.454977 
L 285.758524 502.131524 
L 287.574553 499.445962 
L 289.390582 496.367464 
L 291.206611 492.868327 
L 293.249644 488.400811 
L 295.292676 483.350208 
L 297.335709 477.709312 
L 299.605745 470.764136 
L 302.102785 462.359356 
L 305.053833 451.559964 
L 309.366902 434.756105 
L 313.906975 417.258205 
L 316.404015 408.504071 
L 318.447047 402.167058 
L 320.036073 397.905531 
L 321.398095 394.800219 
L 322.760116 392.260905 
L 323.895135 390.614474 
L 324.803149 389.623743 
L 325.711164 388.935766 
L 326.619178 388.560341 
L 327.300189 388.488727 
L 327.9812 388.600048 
L 328.662211 388.89628 
L 329.570225 389.581072 
L 330.47824 390.598093 
L 331.386255 391.946398 
L 332.521273 394.092642 
L 333.656291 396.740448 
L 335.018313 400.556559 
L 336.380335 405.033218 
L 337.96936 411.026142 
L 339.785389 418.776221 
L 342.055425 429.574719 
L 345.006473 444.891255 
L 352.724596 485.649719 
L 354.994633 496.178274 
L 357.037665 504.570564 
L 358.626691 510.262323 
L 360.215716 515.147326 
L 361.577738 518.654451 
L 362.93976 521.512468 
L 364.074778 523.391272 
L 365.209796 524.81285 
L 366.117811 525.624221 
L 367.025825 526.151072 
L 367.93384 526.400212 
L 368.841855 526.380288 
L 369.749869 526.101703 
L 370.657884 525.576501 
L 371.565898 524.818259 
L 372.700916 523.565685 
L 374.062938 521.658209 
L 375.42496 519.366669 
L 377.240989 515.825845 
L 379.511025 510.847013 
L 387.229149 493.426418 
L 389.045178 490.051902 
L 390.634204 487.523974 
L 391.996225 485.716661 
L 393.358247 484.268663 
L 394.493265 483.349452 
L 395.628284 482.698054 
L 396.763302 482.316442 
L 397.89832 482.202743 
L 399.033338 482.351366 
L 400.168356 482.753163 
L 401.303375 483.395647 
L 402.665396 484.462202 
L 404.027418 485.820593 
L 405.616444 487.724408 
L 407.659476 490.574424 
L 410.38352 494.82924 
L 416.058611 503.806689 
L 418.101644 506.592015 
L 419.917673 508.703154 
L 421.506698 510.213282 
L 422.86872 511.229734 
L 424.230742 511.973558 
L 425.592764 512.435807 
L 426.727782 512.60366 
L 427.8628 512.575372 
L 428.997818 512.355257 
L 430.35984 511.847949 
L 431.721862 511.091519 
L 433.310887 509.923313 
L 435.126916 508.263036 
L 437.169949 506.067702 
L 440.120996 502.511847 
L 445.34208 496.146497 
L 447.612116 493.752707 
L 449.428145 492.135049 
L 451.017171 490.982442 
L 452.606196 490.103685 
L 453.968218 489.582705 
L 455.33024 489.283236 
L 456.692262 489.207076 
L 458.054284 489.351316 
L 459.416305 489.708495 
L 461.005331 490.378413 
L 462.594356 491.296518 
L 464.410385 492.60845 
L 466.680422 494.55895 
L 469.858473 497.643424 
L 474.852553 502.511493 
L 477.122589 504.418887 
L 479.165622 505.844723 
L 480.981651 506.829892 
L 482.570676 507.448415 
L 484.159702 507.825737 
L 485.748727 507.955938 
L 487.337753 507.840257 
L 488.926778 507.486908 
L 490.515804 506.910706 
L 492.331833 506.006327 
L 494.374865 504.723359 
L 496.871905 502.869552 
L 501.411978 499.134292 
L 504.817033 496.467945 
L 507.087069 494.946825 
L 509.130102 493.835365 
L 510.946131 493.091917 
L 512.76216 492.602748 
L 514.351185 492.393766 
L 515.940211 492.391856 
L 517.529236 492.593383 
L 519.345265 493.060555 
L 521.161295 493.758567 
L 523.204327 494.781406 
L 525.701367 496.296446 
L 529.560429 498.955163 
L 534.100502 502.02558 
L 536.597542 503.447099 
L 538.640575 504.380413 
L 540.683607 505.063981 
L 542.499636 505.439918 
L 542.499636 505.439918 
" clip-path="url(#p7559173e34)" style="fill: none; stroke-dasharray: 5.55,2.4; stroke-dashoffset: 0; stroke: #ff7f0e; stroke-width: 1.5"/>
   </g>
   <g id="line2d_87">
    <path d="M 315.496 533.32 
L 315.496 381.592 
" clip-path="url(#p7559173e34)" style="fill: none; stroke: #999999; stroke-width: 0.8; stroke-linecap: square"/>
   </g>
   <g id="patch_14">
    <path d="M 65.792 533.32 
L 65.792 381.592 
" style="fill: none; stroke: #000000; stroke-width: 0.8; stroke-linejoin: miter; stroke-linecap: square"/>
   </g>
   <g id="patch_15">
    <path d="M 565.2 533.32 
L 565.2 381.592 
" style="fill: none; stroke: #000000; stroke-width: 0.8; stroke-linejoin: miter; stroke-linecap: square"/>
   </g>
   <g id="patch_16">
    <path d="M 65.792 533.32 
L 565.2 533.32 
" style="fill: none; stroke: #000000; stroke-width: 0.8; stroke-linejoin: miter; stroke-linecap: square"/>
   </g>
   <g id="patch_17">
    <path d="M 65.792 381.592 
L 565.2 381.592 
" style="fill: none; stroke: #000000; stroke-width: 0.8; stroke-linejoin: miter; stroke-linecap: square"/>
   </g>
  </g>
  <g id="text_31">
   <!-- Smooth external mass crossing: matched quantum source -->
   <g transform="translate(112.605 20.638125) scale(0.12 -0.12)">
    <defs>
     <path id="DejaVuSans-53" d="M 3425 4513 
L 3425 3897 
Q 3066 4069 2747 4153 
Q 2428 4238 2131 4238 
Q 1616 4238 1336 4038 
Q 1056 3838 1056 3469 
Q 1056 3159 1242 3001 
Q 1428 2844 1947 2747 
L 2328 2669 
Q 3034 2534 3370 2195 
Q 3706 1856 3706 1288 
Q 3706 609 3251 259 
Q 2797 -91 1919 -91 
Q 1588 -91 1214 -16 
Q 841 59 441 206 
L 441 856 
Q 825 641 1194 531 
Q 1563 422 1919 422 
Q 2459 422 2753 634 
Q 3047 847 3047 1241 
Q 3047 1584 2836 1778 
Q 2625 1972 2144 2069 
L 1759 2144 
Q 1053 2284 737 2584 
Q 422 2884 422 3419 
Q 422 4038 858 4394 
Q 1294 4750 2059 4750 
Q 2388 4750 2728 4690 
Q 3069 4631 3425 4513 
z
" transform="scale(0.015625)"/>
     <path id="DejaVuSans-78" d="M 3513 3500 
L 2247 1797 
L 3578 0 
L 2900 0 
L 1881 1375 
L 863 0 
L 184 0 
L 1544 1831 
L 300 3500 
L 978 3500 
L 1906 2253 
L 2834 3500 
L 3513 3500 
z
" transform="scale(0.015625)"/>
     <path id="DejaVuSans-67" d="M 2906 1791 
Q 2906 2416 2648 2759 
Q 2391 3103 1925 3103 
Q 1463 3103 1205 2759 
Q 947 2416 947 1791 
Q 947 1169 1205 825 
Q 1463 481 1925 481 
Q 2391 481 2648 825 
Q 2906 1169 2906 1791 
z
M 3481 434 
Q 3481 -459 3084 -895 
Q 2688 -1331 1869 -1331 
Q 1566 -1331 1297 -1286 
Q 1028 -1241 775 -1147 
L 775 -588 
Q 1028 -725 1275 -790 
Q 1522 -856 1778 -856 
Q 2344 -856 2625 -561 
Q 2906 -266 2906 331 
L 2906 616 
Q 2728 306 2450 153 
Q 2172 0 1784 0 
Q 1141 0 747 490 
Q 353 981 353 1791 
Q 353 2603 747 3093 
Q 1141 3584 1784 3584 
Q 2172 3584 2450 3431 
Q 2728 3278 2906 2969 
L 2906 3500 
L 3481 3500 
L 3481 434 
z
" transform="scale(0.015625)"/>
     <path id="DejaVuSans-3a" d="M 750 794 
L 1409 794 
L 1409 0 
L 750 0 
L 750 794 
z
M 750 3309 
L 1409 3309 
L 1409 2516 
L 750 2516 
L 750 3309 
z
" transform="scale(0.015625)"/>
     <path id="DejaVuSans-71" d="M 947 1747 
Q 947 1113 1208 752 
Q 1469 391 1925 391 
Q 2381 391 2643 752 
Q 2906 1113 2906 1747 
Q 2906 2381 2643 2742 
Q 2381 3103 1925 3103 
Q 1469 3103 1208 2742 
Q 947 2381 947 1747 
z
M 2906 525 
Q 2725 213 2448 61 
Q 2172 -91 1784 -91 
Q 1150 -91 751 415 
Q 353 922 353 1747 
Q 353 2572 751 3078 
Q 1150 3584 1784 3584 
Q 2172 3584 2448 3432 
Q 2725 3281 2906 2969 
L 2906 3500 
L 3481 3500 
L 3481 -1331 
L 2906 -1331 
L 2906 525 
z
" transform="scale(0.015625)"/>
     <path id="DejaVuSans-75" d="M 544 1381 
L 544 3500 
L 1119 3500 
L 1119 1403 
Q 1119 906 1312 657 
Q 1506 409 1894 409 
Q 2359 409 2629 706 
Q 2900 1003 2900 1516 
L 2900 3500 
L 3475 3500 
L 3475 0 
L 2900 0 
L 2900 538 
Q 2691 219 2414 64 
Q 2138 -91 1772 -91 
Q 1169 -91 856 284 
Q 544 659 544 1381 
z
M 1991 3584 
L 1991 3584 
z
" transform="scale(0.015625)"/>
    </defs>
    <use xlink:href="#DejaVuSans-53"/>
    <use xlink:href="#DejaVuSans-6d" transform="translate(63.476562 0)"/>
    <use xlink:href="#DejaVuSans-6f" transform="translate(160.888672 0)"/>
    <use xlink:href="#DejaVuSans-6f" transform="translate(222.070312 0)"/>
    <use xlink:href="#DejaVuSans-74" transform="translate(283.251953 0)"/>
    <use xlink:href="#DejaVuSans-68" transform="translate(322.460938 0)"/>
    <use xlink:href="#DejaVuSans-20" transform="translate(385.839844 0)"/>
    <use xlink:href="#DejaVuSans-65" transform="translate(417.626953 0)"/>
    <use xlink:href="#DejaVuSans-78" transform="translate(477.400391 0)"/>
    <use xlink:href="#DejaVuSans-74" transform="translate(536.580078 0)"/>
    <use xlink:href="#DejaVuSans-65" transform="translate(575.789062 0)"/>
    <use xlink:href="#DejaVuSans-72" transform="translate(637.3125 0)"/>
    <use xlink:href="#DejaVuSans-6e" transform="translate(676.675781 0)"/>
    <use xlink:href="#DejaVuSans-61" transform="translate(740.054688 0)"/>
    <use xlink:href="#DejaVuSans-6c" transform="translate(801.333984 0)"/>
    <use xlink:href="#DejaVuSans-20" transform="translate(829.117188 0)"/>
    <use xlink:href="#DejaVuSans-6d" transform="translate(860.904297 0)"/>
    <use xlink:href="#DejaVuSans-61" transform="translate(958.316406 0)"/>
    <use xlink:href="#DejaVuSans-73" transform="translate(1019.595703 0)"/>
    <use xlink:href="#DejaVuSans-73" transform="translate(1071.695312 0)"/>
    <use xlink:href="#DejaVuSans-20" transform="translate(1123.794922 0)"/>
    <use xlink:href="#DejaVuSans-63" transform="translate(1155.582031 0)"/>
    <use xlink:href="#DejaVuSans-72" transform="translate(1210.5625 0)"/>
    <use xlink:href="#DejaVuSans-6f" transform="translate(1249.425781 0)"/>
    <use xlink:href="#DejaVuSans-73" transform="translate(1310.607422 0)"/>
    <use xlink:href="#DejaVuSans-73" transform="translate(1362.707031 0)"/>
    <use xlink:href="#DejaVuSans-69" transform="translate(1414.806641 0)"/>
    <use xlink:href="#DejaVuSans-6e" transform="translate(1442.589844 0)"/>
    <use xlink:href="#DejaVuSans-67" transform="translate(1505.96875 0)"/>
    <use xlink:href="#DejaVuSans-3a" transform="translate(1569.445312 0)"/>
    <use xlink:href="#DejaVuSans-20" transform="translate(1603.136719 0)"/>
    <use xlink:href="#DejaVuSans-6d" transform="translate(1634.923828 0)"/>
    <use xlink:href="#DejaVuSans-61" transform="translate(1732.335938 0)"/>
    <use xlink:href="#DejaVuSans-74" transform="translate(1793.615234 0)"/>
    <use xlink:href="#DejaVuSans-63" transform="translate(1832.824219 0)"/>
    <use xlink:href="#DejaVuSans-68" transform="translate(1887.804688 0)"/>
    <use xlink:href="#DejaVuSans-65" transform="translate(1951.183594 0)"/>
    <use xlink:href="#DejaVuSans-64" transform="translate(2012.707031 0)"/>
    <use xlink:href="#DejaVuSans-20" transform="translate(2076.183594 0)"/>
    <use xlink:href="#DejaVuSans-71" transform="translate(2107.970703 0)"/>
    <use xlink:href="#DejaVuSans-75" transform="translate(2171.447266 0)"/>
    <use xlink:href="#DejaVuSans-61" transform="translate(2234.826172 0)"/>
    <use xlink:href="#DejaVuSans-6e" transform="translate(2296.105469 0)"/>
    <use xlink:href="#DejaVuSans-74" transform="translate(2359.484375 0)"/>
    <use xlink:href="#DejaVuSans-75" transform="translate(2398.693359 0)"/>
    <use xlink:href="#DejaVuSans-6d" transform="translate(2462.072266 0)"/>
    <use xlink:href="#DejaVuSans-20" transform="translate(2559.484375 0)"/>
    <use xlink:href="#DejaVuSans-73" transform="translate(2591.271484 0)"/>
    <use xlink:href="#DejaVuSans-6f" transform="translate(2643.371094 0)"/>
    <use xlink:href="#DejaVuSans-75" transform="translate(2704.552734 0)"/>
    <use xlink:href="#DejaVuSans-72" transform="translate(2767.931641 0)"/>
    <use xlink:href="#DejaVuSans-63" transform="translate(2806.794922 0)"/>
    <use xlink:href="#DejaVuSans-65" transform="translate(2861.775391 0)"/>
   </g>
   <!-- Flat prescribed background; finite cutoffs, specified matching -->
   <g transform="translate(103.404375 34.0755) scale(0.12 -0.12)">
    <defs>
     <path id="DejaVuSans-46" d="M 628 4666 
L 3309 4666 
L 3309 4134 
L 1259 4134 
L 1259 2759 
L 3109 2759 
L 3109 2228 
L 1259 2228 
L 1259 0 
L 628 0 
L 628 4666 
z
" transform="scale(0.015625)"/>
     <path id="DejaVuSans-62" d="M 3116 1747 
Q 3116 2381 2855 2742 
Q 2594 3103 2138 3103 
Q 1681 3103 1420 2742 
Q 1159 2381 1159 1747 
Q 1159 1113 1420 752 
Q 1681 391 2138 391 
Q 2594 391 2855 752 
Q 3116 1113 3116 1747 
z
M 1159 2969 
Q 1341 3281 1617 3432 
Q 1894 3584 2278 3584 
Q 2916 3584 3314 3078 
Q 3713 2572 3713 1747 
Q 3713 922 3314 415 
Q 2916 -91 2278 -91 
Q 1894 -91 1617 61 
Q 1341 213 1159 525 
L 1159 0 
L 581 0 
L 581 4863 
L 1159 4863 
L 1159 2969 
z
" transform="scale(0.015625)"/>
     <path id="DejaVuSans-6b" d="M 581 4863 
L 1159 4863 
L 1159 1991 
L 2875 3500 
L 3609 3500 
L 1753 1863 
L 3688 0 
L 2938 0 
L 1159 1709 
L 1159 0 
L 581 0 
L 581 4863 
z
" transform="scale(0.015625)"/>
     <path id="DejaVuSans-3b" d="M 750 3309 
L 1409 3309 
L 1409 2516 
L 750 2516 
L 750 3309 
z
M 750 794 
L 1409 794 
L 1409 256 
L 897 -744 
L 494 -744 
L 750 256 
L 750 794 
z
" transform="scale(0.015625)"/>
     <path id="DejaVuSans-66" d="M 2375 4863 
L 2375 4384 
L 1825 4384 
Q 1516 4384 1395 4259 
Q 1275 4134 1275 3809 
L 1275 3500 
L 2222 3500 
L 2222 3053 
L 1275 3053 
L 1275 0 
L 697 0 
L 697 3053 
L 147 3053 
L 147 3500 
L 697 3500 
L 697 3744 
Q 697 4328 969 4595 
Q 1241 4863 1831 4863 
L 2375 4863 
z
" transform="scale(0.015625)"/>
    </defs>
    <use xlink:href="#DejaVuSans-46"/>
    <use xlink:href="#DejaVuSans-6c" transform="translate(57.519531 0)"/>
    <use xlink:href="#DejaVuSans-61" transform="translate(85.302734 0)"/>
    <use xlink:href="#DejaVuSans-74" transform="translate(146.582031 0)"/>
    <use xlink:href="#DejaVuSans-20" transform="translate(185.791016 0)"/>
    <use xlink:href="#DejaVuSans-70" transform="translate(217.578125 0)"/>
    <use xlink:href="#DejaVuSans-72" transform="translate(281.054688 0)"/>
    <use xlink:href="#DejaVuSans-65" transform="translate(319.917969 0)"/>
    <use xlink:href="#DejaVuSans-73" transform="translate(381.441406 0)"/>
    <use xlink:href="#DejaVuSans-63" transform="translate(433.541016 0)"/>
    <use xlink:href="#DejaVuSans-72" transform="translate(488.521484 0)"/>
    <use xlink:href="#DejaVuSans-69" transform="translate(529.634766 0)"/>
    <use xlink:href="#DejaVuSans-62" transform="translate(557.417969 0)"/>
    <use xlink:href="#DejaVuSans-65" transform="translate(620.894531 0)"/>
    <use xlink:href="#DejaVuSans-64" transform="translate(682.417969 0)"/>
    <use xlink:href="#DejaVuSans-20" transform="translate(745.894531 0)"/>
    <use xlink:href="#DejaVuSans-62" transform="translate(777.681641 0)"/>
    <use xlink:href="#DejaVuSans-61" transform="translate(841.158203 0)"/>
    <use xlink:href="#DejaVuSans-63" transform="translate(902.4375 0)"/>
    <use xlink:href="#DejaVuSans-6b" transform="translate(957.417969 0)"/>
    <use xlink:href="#DejaVuSans-67" transform="translate(1015.328125 0)"/>
    <use xlink:href="#DejaVuSans-72" transform="translate(1078.804688 0)"/>
    <use xlink:href="#DejaVuSans-6f" transform="translate(1117.667969 0)"/>
    <use xlink:href="#DejaVuSans-75" transform="translate(1178.849609 0)"/>
    <use xlink:href="#DejaVuSans-6e" transform="translate(1242.228516 0)"/>
    <use xlink:href="#DejaVuSans-64" transform="translate(1305.607422 0)"/>
    <use xlink:href="#DejaVuSans-3b" transform="translate(1369.083984 0)"/>
    <use xlink:href="#DejaVuSans-20" transform="translate(1402.775391 0)"/>
    <use xlink:href="#DejaVuSans-66" transform="translate(1434.5625 0)"/>
    <use xlink:href="#DejaVuSans-69" transform="translate(1469.767578 0)"/>
    <use xlink:href="#DejaVuSans-6e" transform="translate(1497.550781 0)"/>
    <use xlink:href="#DejaVuSans-69" transform="translate(1560.929688 0)"/>
    <use xlink:href="#DejaVuSans-74" transform="translate(1588.712891 0)"/>
    <use xlink:href="#DejaVuSans-65" transform="translate(1627.921875 0)"/>
    <use xlink:href="#DejaVuSans-20" transform="translate(1689.445312 0)"/>
    <use xlink:href="#DejaVuSans-63" transform="translate(1721.232422 0)"/>
    <use xlink:href="#DejaVuSans-75" transform="translate(1776.212891 0)"/>
    <use xlink:href="#DejaVuSans-74" transform="translate(1839.591797 0)"/>
    <use xlink:href="#DejaVuSans-6f" transform="translate(1878.800781 0)"/>
    <use xlink:href="#DejaVuSans-66" transform="translate(1939.982422 0)"/>
    <use xlink:href="#DejaVuSans-66" transform="translate(1975.1875 0)"/>
    <use xlink:href="#DejaVuSans-73" transform="translate(2010.392578 0)"/>
    <use xlink:href="#DejaVuSans-2c" transform="translate(2062.492188 0)"/>
    <use xlink:href="#DejaVuSans-20" transform="translate(2094.279297 0)"/>
    <use xlink:href="#DejaVuSans-73" transform="translate(2126.066406 0)"/>
    <use xlink:href="#DejaVuSans-70" transform="translate(2178.166016 0)"/>
    <use xlink:href="#DejaVuSans-65" transform="translate(2241.642578 0)"/>
    <use xlink:href="#DejaVuSans-63" transform="translate(2303.166016 0)"/>
    <use xlink:href="#DejaVuSans-69" transform="translate(2358.146484 0)"/>
    <use xlink:href="#DejaVuSans-66" transform="translate(2385.929688 0)"/>
    <use xlink:href="#DejaVuSans-69" transform="translate(2421.134766 0)"/>
    <use xlink:href="#DejaVuSans-65" transform="translate(2448.917969 0)"/>
    <use xlink:href="#DejaVuSans-64" transform="translate(2510.441406 0)"/>
    <use xlink:href="#DejaVuSans-20" transform="translate(2573.917969 0)"/>
    <use xlink:href="#DejaVuSans-6d" transform="translate(2605.705078 0)"/>
    <use xlink:href="#DejaVuSans-61" transform="translate(2703.117188 0)"/>
    <use xlink:href="#DejaVuSans-74" transform="translate(2764.396484 0)"/>
    <use xlink:href="#DejaVuSans-63" transform="translate(2803.605469 0)"/>
    <use xlink:href="#DejaVuSans-68" transform="translate(2858.585938 0)"/>
    <use xlink:href="#DejaVuSans-69" transform="translate(2921.964844 0)"/>
    <use xlink:href="#DejaVuSans-6e" transform="translate(2949.748047 0)"/>
    <use xlink:href="#DejaVuSans-67" transform="translate(3013.126953 0)"/>
   </g>
  </g>
 </g>
 <defs>
  <clipPath id="p0b6da57b30">
   <rect x="65.792" y="49.536" width="499.408" height="151.728"/>
  </clipPath>
  <clipPath id="p862ea8c36f">
   <rect x="65.792" y="215.564" width="499.408" height="151.728"/>
  </clipPath>
  <clipPath id="p7559173e34">
   <rect x="65.792" y="381.592" width="499.408" height="151.728"/>
  </clipPath>
 </defs>
</svg>
